<svg width="184" height="187" viewBox="0 0 184 187" fill="none" xmlns="http://www.w3.org/2000/svg">
<path d="M36.6671 12.774C38.468 16.6696 41.01 19.9048 44.2718 22.7424C51.5703 28.9192 61.5742 31.8723 71.2337 34.6716C82.7111 37.9915 93.6184 41.115 99.4145 49.4977C104.435 56.7563 105.672 65.4351 103.148 75.2715C101.255 82.6488 97.8211 87.9577 97.7889 88.0405C97.3059 88.6606 97.4683 89.4914 98.0063 89.7706C98.2 89.896 98.4259 89.9386 98.6839 89.8984C99.0925 89.8865 99.5222 89.6119 99.8656 89.1433C100.037 88.909 103.643 83.3658 105.654 75.4773C107.515 68.1828 108.382 57.4116 101.681 47.6136C95.5183 38.7173 84.3421 35.4542 72.4129 32.0492C57.5256 27.7307 42.294 23.2584 37.4116 6.69141L36.6671 12.774Z" fill="url(#paint0_linear_360_44)"/>
<path d="M97.4751 83.9703L95.4816 88.0324C94.0881 90.8714 94.2981 93.625 95.9521 94.1449L104.84 96.9541C106.493 97.4771 108.985 95.5821 110.38 92.7401L112.376 88.6785C112.776 87.8598 112.714 87.0663 112.239 86.9159L99.0713 82.7555C98.996 82.7317 98.915 82.7228 98.8297 82.7324C98.3754 82.7846 97.8127 83.2809 97.4751 83.9703Z" fill="url(#paint1_linear_360_44)"/>
<path d="M37.7931 72.8888C37.7931 72.8888 25.915 79.2208 19.0576 97.2832C12.9257 113.411 15.2826 127.145 16.6298 129.894C20.4251 137.975 26.1743 142.339 31.2736 143.883C38.9585 146.21 47.5416 145.437 55.6704 142.279L95.2437 154.262C98.4626 160.857 104.1 165.936 111.785 168.263C130.458 173.918 154.133 161.416 164.77 140.284C165.22 139.389 165.67 138.495 166.008 137.661C174.811 117.378 168.128 97.2755 150.244 91.8601C143.852 89.9245 136.868 90.1514 130.01 92.1022L84.4752 78.3136C81.1352 73.2744 76.1251 69.4156 69.7331 67.4799C65.352 66.1533 60.6236 65.8455 55.8451 66.4592C49.6721 67.2126 43.4908 69.4623 37.7931 72.8888Z" fill="url(#paint2_linear_360_44)"/>
<path d="M37.2436 73.002C28.7386 78.6322 22.1841 89.0262 19.7772 95.3724C15.1421 107.487 15.3639 120.573 22.7424 131.157C25.4367 134.883 31.7591 138.701 33.4012 139.2C41.129 141.549 49.6671 140.732 57.8438 137.529L97.6419 149.626C100.864 156.293 106.429 161.397 114.157 163.746C132.124 169.207 154.638 157.85 165.968 138.165C170.179 128.449 170.857 118.67 168.351 110.578C165.734 101.82 159.477 94.9888 150.107 92.1408C143.732 90.2029 136.697 90.466 129.815 92.4188L84.1247 78.5309C80.7668 73.4658 75.8238 69.5619 69.3518 67.5947C64.9083 66.2441 60.1625 65.9391 55.4178 66.5191C49.2386 67.2951 42.6885 69.4751 37.2436 73.002Z" fill="url(#paint3_linear_360_44)"/>
<path d="M42.6476 85.6781L41.9035 87.2258C41.9267 87.1733 41.9507 87.1211 41.9757 87.0692L42.7197 85.5215C42.6948 85.5733 42.6708 85.6255 42.6476 85.6781Z" fill="#1E94B6"/>
<path d="M41.0243 89.3487L40.2682 90.9009L41.9344 87.2259L42.6899 85.6748L41.0243 89.3487Z" fill="#00287E"/>
<path d="M58.4366 102.923C58.0375 103.261 57.5803 103.541 57.0841 103.757C56.6085 103.965 56.0966 104.114 55.5643 104.198C54.5105 104.366 53.3781 104.279 52.2929 103.895L47.9342 102.352L47.1907 103.9L51.5493 105.442C52.6346 105.826 53.7669 105.912 54.8207 105.745C55.3531 105.66 55.865 105.512 56.3406 105.304C56.8367 105.087 57.2932 104.807 57.693 104.47C58.194 104.046 58.6047 103.532 58.889 102.941L59.6325 101.395C59.3482 101.985 58.9375 102.5 58.4366 102.923Z" fill="#060634"/>
<path d="M37.0856 98.2029L36.1076 100.038L31.983 98.8289L32.961 96.994L37.0856 98.2029Z" fill="#060634"/>
<path d="M32.727 96.9711L31.9835 98.5182C29.0019 97.4627 27.454 94.5379 28.5447 92.0213C28.5679 91.9685 28.5911 91.9163 28.6164 91.8654L29.36 90.3184C29.3354 90.3699 29.3108 90.4221 29.2882 90.4742C28.1975 92.9921 29.7454 95.9156 32.727 96.9711Z" fill="#060634"/>
<path d="M35.4613 102.188L34.7053 103.74L36.3706 100.065L37.1269 98.5138L35.4613 102.188Z" fill="#00287E"/>
<path d="M51.6377 81.6024C54.3097 82.3718 55.3523 85.3043 53.9645 88.0995L51.9199 92.18L55.8354 93.3179C58.5075 94.0874 59.55 97.0198 58.1622 99.815C56.7568 102.605 53.411 104.259 50.7489 103.47L46.8235 102.352L44.7789 106.433C43.3735 109.223 40.0452 110.882 37.3557 110.107C34.6836 109.338 33.6411 106.406 35.0289 103.61L37.0735 99.5299L33.1579 98.3919C30.4859 97.6225 29.4334 94.7095 30.8212 91.9143C32.2266 89.1243 35.5724 87.4699 38.2444 88.2394L42.1699 89.3578L44.2145 85.2773C45.6023 82.4821 48.9481 80.8278 51.6377 81.6024Z" fill="url(#paint4_linear_360_44)"/>
<path d="M37.9266 108.929C35.8497 108.313 35.0225 106.068 36.0968 103.922L38.7433 98.6563L33.7486 97.2249C31.6527 96.6037 30.8255 94.3582 31.8998 92.2127C32.3787 91.2324 33.2171 90.4075 34.2139 89.8734C35.3493 89.2829 36.5973 89.1161 37.6561 89.4055L42.6399 90.8581L45.2674 85.5867C45.7654 84.6121 46.5846 83.7815 47.6113 83.232C48.7277 82.6358 49.9757 82.469 51.0427 82.7852C53.1386 83.4063 53.9658 85.6519 52.8915 87.7974L50.245 93.0631L55.2397 94.4945C57.3356 95.1157 58.1628 97.3612 57.0885 99.5068C56.6096 100.487 55.7713 101.312 54.7744 101.846C53.639 102.436 52.391 102.603 51.3431 102.293L46.3484 100.861L43.7209 106.133C43.223 107.107 42.4037 107.938 41.3878 108.466C40.2715 109.062 39.0235 109.229 37.9647 108.94L37.9266 108.929Z" fill="url(#paint5_linear_360_44)"/>
<path d="M45.0688 107.721C44.669 108.059 44.2125 108.34 43.7163 108.556C43.2407 108.763 42.7295 108.912 42.1985 108.996C41.1461 109.164 40.0158 109.077 38.9319 108.694C35.9462 107.637 34.3983 104.713 35.4904 102.191L34.7468 103.738C33.6548 106.259 35.202 109.183 38.1891 110.24C39.2729 110.624 40.4026 110.71 41.455 110.543C41.986 110.459 42.4972 110.31 42.9728 110.103C43.4683 109.886 43.9255 109.606 44.3252 109.268C44.8275 108.843 45.2396 108.327 45.5246 107.734L46.2681 106.188C45.9825 106.782 45.5711 107.297 45.0688 107.721Z" fill="#060634"/>
<path d="M147.202 135.719C145.366 139.279 146.492 142.949 149.689 143.915C152.91 144.87 156.988 142.761 158.818 139.18C160.654 135.62 159.529 131.95 156.331 130.983C155.553 130.753 154.733 130.702 153.921 130.806C151.294 131.121 148.59 133.004 147.202 135.719Z" fill="url(#paint6_linear_360_44)"/>
<path d="M147.65 134.694C145.827 138.262 146.94 141.937 150.141 142.905C153.365 143.861 157.439 141.742 159.277 138.179C161.109 134.594 159.987 130.936 156.787 129.968C156.007 129.737 155.187 129.69 154.358 129.796C151.748 130.118 149.055 131.981 147.65 134.694Z" fill="url(#paint7_linear_360_44)"/>
<path d="M148.708 135.016C147.215 137.937 148.13 140.94 150.754 141.726L150.761 141.728C153.381 142.505 156.728 140.764 158.213 137.858C159.713 134.938 158.798 131.935 156.167 131.147C155.54 130.962 154.879 130.919 154.207 131.002C152.062 131.263 149.847 132.801 148.708 135.016Z" fill="url(#paint8_linear_360_44)"/>
<path d="M140.76 116.53C138.923 120.09 140.049 123.76 143.246 124.727C146.467 125.681 150.546 123.572 152.375 119.991C154.211 116.432 153.086 112.762 149.889 111.795C149.11 111.564 148.291 111.513 147.478 111.618C144.851 111.932 142.147 113.816 140.76 116.53Z" fill="url(#paint9_linear_360_44)"/>
<path d="M141.208 115.507C139.384 119.075 140.498 122.75 143.698 123.718C146.922 124.673 150.996 122.555 152.835 118.991C154.666 115.406 153.544 111.748 150.344 110.78C149.565 110.55 148.744 110.502 147.916 110.609C145.305 110.931 142.612 112.793 141.208 115.507Z" fill="url(#paint10_linear_360_44)"/>
<path d="M142.265 115.827C140.772 118.749 141.687 121.752 144.311 122.538L144.318 122.54C146.939 123.316 150.285 121.576 151.77 118.669C153.27 115.75 152.355 112.747 149.724 111.959C149.097 111.773 148.436 111.731 147.764 111.813C145.619 112.074 143.405 113.612 142.265 115.827Z" fill="url(#paint11_linear_360_44)"/>
<path d="M119.283 122.925C117.447 126.485 118.573 130.155 121.77 131.121C124.99 132.076 129.069 129.967 130.899 126.386C132.735 122.826 131.609 119.156 128.412 118.19C127.633 117.959 126.814 117.908 126.002 118.012C123.375 118.327 120.67 120.21 119.283 122.925Z" fill="url(#paint12_linear_360_44)"/>
<path d="M119.731 121.902C117.908 125.469 119.021 129.144 122.221 130.112C125.446 131.068 129.519 128.949 131.358 125.386C133.19 121.801 132.068 118.143 128.867 117.175C128.088 116.944 127.268 116.897 126.439 117.003C123.829 117.325 121.135 119.188 119.731 121.902Z" fill="url(#paint13_linear_360_44)"/>
<path d="M120.788 122.223C119.295 125.144 120.21 128.147 122.834 128.933L122.841 128.935C125.462 129.712 128.808 127.971 130.294 125.065C131.793 122.145 130.878 119.142 128.248 118.354C127.621 118.169 126.959 118.126 126.287 118.209C124.142 118.47 121.928 120.008 120.788 122.223Z" fill="url(#paint14_linear_360_44)"/>
<path d="M123.578 142.118C121.742 145.678 122.868 149.348 126.065 150.315C129.285 151.269 133.364 149.16 135.194 145.579C137.03 142.02 135.904 138.349 132.707 137.383C131.928 137.152 131.109 137.101 130.297 137.206C127.67 137.52 124.965 139.404 123.578 142.118Z" fill="url(#paint15_linear_360_44)"/>
<path d="M124.026 141.094C122.203 144.662 123.316 148.337 126.517 149.305C129.741 150.26 133.815 148.142 135.653 144.578C137.485 140.993 136.363 137.335 133.163 136.367C132.383 136.136 131.563 136.089 130.734 136.196C128.124 136.518 125.431 138.38 124.026 141.094Z" fill="url(#paint16_linear_360_44)"/>
<path d="M125.084 141.413C123.591 144.334 124.506 147.338 127.13 148.124L127.136 148.126C129.757 148.902 133.104 147.162 134.589 144.255C136.088 141.336 135.173 138.333 132.543 137.545C131.916 137.359 131.254 137.317 130.582 137.399C128.437 137.66 126.223 139.198 125.084 141.413Z" fill="url(#paint17_linear_360_44)"/>
<path d="M76.2873 105.617L75.3828 107.432C75.1316 107.936 75.2865 108.461 75.7268 108.596L82.9292 110.809C83.3694 110.944 83.9364 110.641 84.1877 110.137L85.0922 108.322C85.3435 107.818 85.1885 107.294 84.7482 107.158L77.5459 104.946C77.4402 104.913 77.3245 104.901 77.2163 104.914C76.8554 104.966 76.4783 105.234 76.2873 105.617Z" fill="url(#paint18_linear_360_44)"/>
<path d="M76.5835 104.955L75.6739 106.78C75.4277 107.274 75.5827 107.798 76.0229 107.934L83.2253 110.147C83.6655 110.282 84.2326 109.979 84.4788 109.485L85.3883 107.66C85.6396 107.156 85.4846 106.632 85.0444 106.496L77.842 104.283C77.7363 104.251 77.6294 104.241 77.5125 104.252C77.1516 104.304 76.7744 104.572 76.5835 104.955Z" fill="url(#paint19_linear_360_44)"/>
<path d="M101.741 115.096L100.837 116.911C100.585 117.415 100.74 117.939 101.181 118.074L108.383 120.287C108.823 120.422 109.39 120.12 109.641 119.616L110.546 117.801C110.797 117.297 110.642 116.772 110.202 116.637L103 114.424C102.894 114.392 102.787 114.382 102.67 114.393C102.309 114.445 101.932 114.712 101.741 115.096Z" fill="url(#paint20_linear_360_44)"/>
<path d="M102.038 114.431L101.133 116.246C100.882 116.751 101.037 117.275 101.477 117.41L108.679 119.623C109.12 119.758 109.687 119.456 109.938 118.952L110.842 117.137C111.094 116.633 110.939 116.108 110.499 115.973L103.296 113.76C103.191 113.728 103.075 113.715 102.967 113.729C102.606 113.78 102.229 114.048 102.038 114.431Z" fill="url(#paint21_linear_360_44)"/>
<path d="M60.3178 131.601L60.0608 135.156C63.9669 131.488 64.3306 127.719 64.3306 127.719C62.6494 130.669 60.3178 131.601 60.3178 131.601Z" fill="url(#paint22_linear_360_44)"/>
<path d="M99.1508 149.245L102.025 146.498C102.025 146.498 101.116 144.566 102.424 141.501C102.424 141.501 99.443 144.463 99.1508 149.245Z" fill="url(#paint23_linear_360_44)"/>
<path d="M79.5415 89.2466C79.5415 89.2466 81.8758 85.5401 81.794 82.127L79.3665 81.4004C79.3665 81.4004 80.7298 83.9263 79.5415 89.2466Z" fill="url(#paint24_linear_360_44)"/>
<path d="M120.256 104.118C124.069 99.5833 127.298 98.432 127.298 98.432L124.871 97.7054C121.803 100.176 120.256 104.118 120.256 104.118Z" fill="url(#paint25_linear_360_44)"/>
<path d="M47.0631 90.0461L44.5769 89.1507L46.6831 87.665L48.7893 86.1787L49.17 88.5598L49.5492 90.9408L47.0631 90.0461Z" fill="#060634"/>
<path d="M41.5501 102.395L39.064 101.5L39.4432 103.881L39.8239 106.263L41.9301 104.776L44.037 103.29L41.5501 102.395Z" fill="#060634"/>
<path d="M36.3382 92.9206L35.3418 95.1532L32.0315 91.3705L34.6837 91.0287L37.3346 90.6875L36.3382 92.9206Z" fill="#060634"/>
<path d="M54.0025 96.8223L52.0098 101.289L54.6606 100.947L57.3129 100.605L55.6577 98.7142L54.0025 96.8223Z" fill="#060634"/>
<defs>
<linearGradient id="paint0_linear_360_44" x1="83.1732" y1="-1.83748" x2="66.9857" y2="84.0102" gradientUnits="userSpaceOnUse">
<stop stop-color="#FFFFFB"/>
<stop offset="1" stop-color="#A1D4FF"/>
</linearGradient>
<linearGradient id="paint1_linear_360_44" x1="104.526" y1="86.7762" x2="103.943" y2="89.8705" gradientUnits="userSpaceOnUse">
<stop stop-color="#A1D4FF"/>
<stop offset="1" stop-color="#67B2E4"/>
</linearGradient>
<linearGradient id="paint2_linear_360_44" x1="102.685" y1="94.2253" x2="76.7032" y2="180.027" gradientUnits="userSpaceOnUse">
<stop stop-color="#A1D4FF"/>
<stop offset="1" stop-color="#67B2E4"/>
</linearGradient>
<linearGradient id="paint3_linear_360_44" x1="115.743" y1="67.919" x2="80.5749" y2="183.62" gradientUnits="userSpaceOnUse">
<stop stop-color="#FFFFFB"/>
<stop offset="1" stop-color="#A1D4FF"/>
</linearGradient>
<linearGradient id="paint4_linear_360_44" x1="42.1785" y1="100.392" x2="36.07" y2="121.005" gradientUnits="userSpaceOnUse">
<stop stop-color="#002A63"/>
<stop offset="1" stop-color="#001334"/>
</linearGradient>
<linearGradient id="paint5_linear_360_44" x1="47.4879" y1="90.0017" x2="40.8419" y2="112.427" gradientUnits="userSpaceOnUse">
<stop stop-color="#00639D"/>
<stop offset="1" stop-color="#002A63"/>
</linearGradient>
<linearGradient id="paint6_linear_360_44" x1="155.687" y1="132.211" x2="150.463" y2="149.84" gradientUnits="userSpaceOnUse">
<stop stop-color="#4C34D3"/>
<stop offset="1" stop-color="#270094"/>
</linearGradient>
<linearGradient id="paint7_linear_360_44" x1="152.327" y1="138.662" x2="146.998" y2="156.646" gradientUnits="userSpaceOnUse">
<stop stop-color="#3086FF"/>
<stop offset="1" stop-color="#4C34D3"/>
</linearGradient>
<linearGradient id="paint8_linear_360_44" x1="155.386" y1="132.674" x2="153.06" y2="140.523" gradientUnits="userSpaceOnUse">
<stop stop-color="#3086FF"/>
<stop offset="1" stop-color="#4C34D3"/>
</linearGradient>
<linearGradient id="paint9_linear_360_44" x1="149.244" y1="113.023" x2="144.02" y2="130.651" gradientUnits="userSpaceOnUse">
<stop stop-color="#4C34D3"/>
<stop offset="1" stop-color="#270094"/>
</linearGradient>
<linearGradient id="paint10_linear_360_44" x1="145.884" y1="119.475" x2="140.555" y2="137.459" gradientUnits="userSpaceOnUse">
<stop stop-color="#3086FF"/>
<stop offset="1" stop-color="#4C34D3"/>
</linearGradient>
<linearGradient id="paint11_linear_360_44" x1="148.943" y1="113.486" x2="146.618" y2="121.334" gradientUnits="userSpaceOnUse">
<stop stop-color="#3086FF"/>
<stop offset="1" stop-color="#4C34D3"/>
</linearGradient>
<linearGradient id="paint12_linear_360_44" x1="127.767" y1="119.417" x2="122.544" y2="137.046" gradientUnits="userSpaceOnUse">
<stop stop-color="#4C34D3"/>
<stop offset="1" stop-color="#270094"/>
</linearGradient>
<linearGradient id="paint13_linear_360_44" x1="124.407" y1="125.869" x2="119.078" y2="143.853" gradientUnits="userSpaceOnUse">
<stop stop-color="#3086FF"/>
<stop offset="1" stop-color="#4C34D3"/>
</linearGradient>
<linearGradient id="paint14_linear_360_44" x1="127.466" y1="119.882" x2="125.141" y2="127.73" gradientUnits="userSpaceOnUse">
<stop stop-color="#3086FF"/>
<stop offset="1" stop-color="#4C34D3"/>
</linearGradient>
<linearGradient id="paint15_linear_360_44" x1="132.062" y1="138.611" x2="126.839" y2="156.239" gradientUnits="userSpaceOnUse">
<stop stop-color="#4C34D3"/>
<stop offset="1" stop-color="#270094"/>
</linearGradient>
<linearGradient id="paint16_linear_360_44" x1="128.702" y1="145.062" x2="123.374" y2="163.045" gradientUnits="userSpaceOnUse">
<stop stop-color="#3086FF"/>
<stop offset="1" stop-color="#4C34D3"/>
</linearGradient>
<linearGradient id="paint17_linear_360_44" x1="131.762" y1="139.072" x2="129.436" y2="146.92" gradientUnits="userSpaceOnUse">
<stop stop-color="#3086FF"/>
<stop offset="1" stop-color="#4C34D3"/>
</linearGradient>
<linearGradient id="paint18_linear_360_44" x1="75.8351" y1="106.524" x2="83.9683" y2="110.577" gradientUnits="userSpaceOnUse">
<stop stop-color="#CC0CD8"/>
<stop offset="1" stop-color="#8C008A"/>
</linearGradient>
<linearGradient id="paint19_linear_360_44" x1="76.1311" y1="105.863" x2="84.2642" y2="109.916" gradientUnits="userSpaceOnUse">
<stop stop-color="#FF69FF"/>
<stop offset="1" stop-color="#CC0CD8"/>
</linearGradient>
<linearGradient id="paint20_linear_360_44" x1="101.289" y1="116.003" x2="109.422" y2="120.056" gradientUnits="userSpaceOnUse">
<stop stop-color="#CC0CD8"/>
<stop offset="1" stop-color="#8C008A"/>
</linearGradient>
<linearGradient id="paint21_linear_360_44" x1="101.585" y1="115.34" x2="109.718" y2="119.393" gradientUnits="userSpaceOnUse">
<stop stop-color="#FF69FF"/>
<stop offset="1" stop-color="#CC0CD8"/>
</linearGradient>
<linearGradient id="paint22_linear_360_44" x1="82.8078" y1="88.9872" x2="59.5391" y2="164.396" gradientUnits="userSpaceOnUse">
<stop stop-color="#A1D4FF"/>
<stop offset="1" stop-color="#67B2E4"/>
</linearGradient>
<linearGradient id="paint23_linear_360_44" x1="122.23" y1="103.18" x2="98.9621" y2="178.588" gradientUnits="userSpaceOnUse">
<stop stop-color="#A1D4FF"/>
<stop offset="1" stop-color="#67B2E4"/>
</linearGradient>
<linearGradient id="paint24_linear_360_44" x1="77.0391" y1="90.1072" x2="53.768" y2="167.858" gradientUnits="userSpaceOnUse">
<stop stop-color="#A1D4FF"/>
<stop offset="1" stop-color="#67B2E4"/>
</linearGradient>
<linearGradient id="paint25_linear_360_44" x1="121.34" y1="106.052" x2="98.0685" y2="183.803" gradientUnits="userSpaceOnUse">
<stop stop-color="#A1D4FF"/>
<stop offset="1" stop-color="#67B2E4"/>
</linearGradient>
</defs>
</svg>
