<svg width="391" height="341" viewBox="0 0 391 341" fill="none" xmlns="http://www.w3.org/2000/svg">
<g filter="url(#filter0_di_360_250)">
<mask id="path-1-outside-1_360_250" maskUnits="userSpaceOnUse" x="20" y="16" width="351" height="301" fill="black">
<rect fill="white" x="20" y="16" width="351" height="301"/>
<path fill-rule="evenodd" clip-rule="evenodd" d="M353 307L195.5 36L38 307H122.469C130.372 297.408 153.597 290.057 182.382 288.331V221.607H208.759V288.352C221.022 289.108 232.265 290.885 241.731 293.421V291.161C241.731 286.657 245.382 283.005 249.887 283.005C254.391 283.005 258.043 286.657 258.043 291.161V299.197C258.043 299.269 258.042 299.341 258.04 299.413C262.565 301.707 266.069 304.262 268.325 307H353ZM195.5 163.384C209.876 163.384 221.53 151.535 221.53 136.919C221.53 122.303 209.876 110.454 195.5 110.454C181.124 110.454 169.47 122.303 169.47 136.919C169.47 151.535 181.124 163.384 195.5 163.384ZM182.382 215.017V167.266C186.249 169.581 190.757 170.909 195.57 170.909C200.383 170.909 204.891 169.581 208.759 167.266V215.017H182.382Z"/>
</mask>
<path d="M195.5 36L204.146 30.9752L195.5 16.0988L186.854 30.9752L195.5 36ZM353 307V317H370.378L361.646 301.975L353 307ZM38 307L29.3541 301.975L20.622 317H38V307ZM122.469 307V317H127.187L130.187 313.359L122.469 307ZM182.382 288.331L182.98 298.313L192.382 297.749V288.331H182.382ZM182.382 221.607V211.607H172.382V221.607H182.382ZM208.759 221.607H218.759V211.607H208.759V221.607ZM208.759 288.352H198.759V297.755L208.144 298.333L208.759 288.352ZM241.731 293.421L239.143 303.08L251.731 306.453V293.421H241.731ZM258.04 299.413L248.044 299.152L247.879 305.473L253.519 308.333L258.04 299.413ZM268.325 307L260.607 313.359L263.607 317H268.325V307ZM182.382 167.266L187.518 158.686L172.382 149.624V167.266H182.382ZM182.382 215.017H172.382V225.017H182.382V215.017ZM208.759 167.266H218.759V149.624L203.623 158.686L208.759 167.266ZM208.759 215.017V225.017H218.759V215.017H208.759ZM186.854 41.0248L344.354 312.025L361.646 301.975L204.146 30.9752L186.854 41.0248ZM46.6459 312.025L204.146 41.0248L186.854 30.9752L29.3541 301.975L46.6459 312.025ZM122.469 297H38V317H122.469V297ZM181.783 278.349C166.761 279.25 152.931 281.628 141.608 285.172C130.699 288.586 120.598 293.544 114.751 300.641L130.187 313.359C132.243 310.864 137.705 307.35 147.581 304.259C157.042 301.298 169.218 299.138 182.98 298.313L181.783 278.349ZM172.382 221.607V288.331H192.382V221.607H172.382ZM208.759 211.607H182.382V231.607H208.759V211.607ZM218.759 288.352V221.607H198.759V288.352H218.759ZM244.319 283.762C234.108 281.026 222.192 279.161 209.374 278.371L208.144 298.333C219.852 299.055 230.422 300.744 239.143 303.08L244.319 283.762ZM231.731 291.161V293.421H251.731V291.161H231.731ZM249.887 273.005C239.86 273.005 231.731 281.134 231.731 291.161H251.731C251.731 292.18 250.905 293.005 249.887 293.005V273.005ZM268.043 291.161C268.043 281.134 259.914 273.005 249.887 273.005V293.005C248.869 293.005 248.043 292.18 248.043 291.161H268.043ZM268.043 299.197V291.161H248.043V299.197H268.043ZM268.037 299.674C268.041 299.515 268.043 299.356 268.043 299.197H248.043C248.043 299.182 248.043 299.167 248.044 299.152L268.037 299.674ZM276.043 300.641C272.588 296.448 267.767 293.133 262.562 290.494L253.519 308.333C257.363 310.281 259.55 312.077 260.607 313.359L276.043 300.641ZM353 297H268.325V317H353V297ZM211.53 136.919C211.53 146.169 204.198 153.384 195.5 153.384V173.384C215.554 173.384 231.53 156.902 231.53 136.919H211.53ZM195.5 120.454C204.198 120.454 211.53 127.669 211.53 136.919H231.53C231.53 116.937 215.554 100.454 195.5 100.454V120.454ZM179.47 136.919C179.47 127.669 186.802 120.454 195.5 120.454V100.454C175.446 100.454 159.47 116.937 159.47 136.919H179.47ZM195.5 153.384C186.802 153.384 179.47 146.169 179.47 136.919H159.47C159.47 156.902 175.446 173.384 195.5 173.384V153.384ZM172.382 167.266V215.017H192.382V167.266H172.382ZM195.57 160.909C192.623 160.909 189.883 160.102 187.518 158.686L177.245 175.846C182.615 179.06 188.891 180.909 195.57 180.909V160.909ZM203.623 158.686C201.257 160.102 198.517 160.909 195.57 160.909V180.909C202.25 180.909 208.525 179.06 213.896 175.846L203.623 158.686ZM218.759 215.017V167.266H198.759V215.017H218.759ZM182.382 225.017H208.759V205.017H182.382V225.017Z" fill="white" mask="url(#path-1-outside-1_360_250)"/>
</g>
<defs>
<filter id="filter0_di_360_250" x="0.62207" y="0.0986328" width="389.756" height="340.901" filterUnits="userSpaceOnUse" color-interpolation-filters="sRGB">
<feFlood flood-opacity="0" result="BackgroundImageFix"/>
<feColorMatrix in="SourceAlpha" type="matrix" values="0 0 0 0 0 0 0 0 0 0 0 0 0 0 0 0 0 0 127 0" result="hardAlpha"/>
<feOffset dy="4"/>
<feGaussianBlur stdDeviation="10"/>
<feComposite in2="hardAlpha" operator="out"/>
<feColorMatrix type="matrix" values="0 0 0 0 0.795833 0 0 0 0 0.254003 0 0 0 0 0.0828993 0 0 0 1 0"/>
<feBlend mode="normal" in2="BackgroundImageFix" result="effect1_dropShadow_360_250"/>
<feBlend mode="normal" in="SourceGraphic" in2="effect1_dropShadow_360_250" result="shape"/>
<feColorMatrix in="SourceAlpha" type="matrix" values="0 0 0 0 0 0 0 0 0 0 0 0 0 0 0 0 0 0 127 0" result="hardAlpha"/>
<feOffset dx="4" dy="4"/>
<feGaussianBlur stdDeviation="10"/>
<feComposite in2="hardAlpha" operator="arithmetic" k2="-1" k3="1"/>
<feColorMatrix type="matrix" values="0 0 0 0 1 0 0 0 0 0.6 0 0 0 0 0 0 0 0 0.8 0"/>
<feBlend mode="normal" in2="shape" result="effect2_innerShadow_360_250"/>
</filter>
</defs>
</svg>
