<svg width="282" height="265" viewBox="0 0 282 265" fill="none" xmlns="http://www.w3.org/2000/svg">
<path d="M3 221.156C3 244.922 22.8474 264.311 47.1766 264.311C71.5057 264.311 91.3532 244.922 91.3532 221.156C91.3532 197.389 71.5057 178 47.1766 178C22.8474 178 3 197.389 3 221.156ZM8.01521 221.156C8.01521 200.099 25.6218 182.899 47.1766 182.899C68.7313 182.899 86.3379 200.099 86.3379 221.156C86.3379 242.212 68.7313 259.412 47.1766 259.412C25.6218 259.412 8.01521 242.212 8.01521 221.156Z" fill="url(#paint0_linear_368_1660)"/>
<path d="M236.998 25.7677L151.209 73.0531C150.453 73.537 149.94 74.3889 149.927 75.1828C149.948 76.1114 150.384 76.9327 151.162 77.3774L233.313 124.318C233.745 124.565 234.142 124.677 234.642 124.619C235.004 124.597 235.418 124.49 235.831 124.382C236.587 123.898 237.049 123.132 237.114 122.253L240.803 27.9417C240.781 27.0132 240.294 26.2771 239.567 25.7472C239.221 25.5496 238.738 25.3877 238.238 25.4457C237.876 25.4678 237.463 25.5751 236.998 25.7677ZM157.446 75.2425L235.581 32.1723L232.333 118.032L157.446 75.2425Z" fill="url(#paint1_linear_368_1660)"/>
<rect x="160.5" y="177.5" width="87" height="84" stroke="url(#paint2_linear_368_1660)" stroke-width="5"/>
<line x1="4.76777" y1="35.2322" x2="82.3081" y2="112.773" stroke="url(#paint3_linear_368_1660)" stroke-width="5"/>
<line x1="2.23028" y1="112.774" x2="79.7706" y2="35.2334" stroke="url(#paint4_linear_368_1660)" stroke-width="5"/>
<defs>
<linearGradient id="paint0_linear_368_1660" x1="47.1751" y1="210.627" x2="47.1751" y2="314.868" gradientUnits="userSpaceOnUse">
<stop stop-color="#00FFDF"/>
<stop offset="1" stop-color="#6850E7"/>
</linearGradient>
<linearGradient id="paint1_linear_368_1660" x1="171.884" y1="38.1516" x2="257.175" y2="89.5278" gradientUnits="userSpaceOnUse">
<stop stop-color="#DB00FF" stop-opacity="0.63"/>
<stop offset="1" stop-color="#E77D50"/>
</linearGradient>
<linearGradient id="paint2_linear_368_1660" x1="204" y1="175" x2="204" y2="264" gradientUnits="userSpaceOnUse">
<stop stop-color="#186BA7"/>
<stop offset="1" stop-color="#A287ED"/>
</linearGradient>
<linearGradient id="paint3_linear_368_1660" x1="78.0415" y1="114.621" x2="3.09674" y2="39.9984" gradientUnits="userSpaceOnUse">
<stop stop-color="#9F2727"/>
<stop offset="1" stop-color="#8CD850"/>
</linearGradient>
<linearGradient id="paint4_linear_368_1660" x1="81.6191" y1="39.5" x2="6.99648" y2="114.445" gradientUnits="userSpaceOnUse">
<stop stop-color="#9F2727"/>
<stop offset="1" stop-color="#8CD850"/>
</linearGradient>
</defs>
</svg>
