<svg width="1920" height="1080" viewBox="0 0 1920 1080" fill="none" xmlns="http://www.w3.org/2000/svg">
<g clip-path="url(#clip0_368_1854)">
<rect width="1920" height="1080" fill="#0D0C33"/>
<g filter="url(#filter0_f_368_1854)">
<path fill-rule="evenodd" clip-rule="evenodd" d="M333.502 142.691C404.294 148.307 475.427 173.007 524.705 224.141C570.045 271.189 562.915 344.164 586.414 405.132C611.925 471.319 686.209 527.439 668.034 596.004C649.93 664.302 562.372 682.324 502.845 720.388C447.702 755.648 398.925 811.894 333.502 809.915C268.544 807.951 225.135 746.979 171.441 710.367C115.525 672.24 40.7352 653.188 13.067 591.424C-15.4594 527.744 9.0181 455.133 26.889 387.683C45.817 316.243 61.1717 238.08 118.909 191.946C177.683 144.983 258.506 136.74 333.502 142.691Z" fill="#7572FF" fill-opacity="0.4"/>
</g>
<g filter="url(#filter1_f_368_1854)">
<path fill-rule="evenodd" clip-rule="evenodd" d="M1455.64 233.292C1537.64 203.59 1559.02 383.362 1633.14 431.88C1711.38 483.093 1834.64 437.608 1889.5 517.285C1942.78 594.68 1915.64 710.02 1888.01 802.078C1862.91 885.711 1795.54 939.816 1742.73 1006.24C1690.05 1072.51 1653.63 1160.81 1578.41 1191.52C1501.64 1222.87 1410.78 1213.14 1338.28 1171.38C1270.33 1132.25 1237.43 1049.11 1201.85 974.66C1172.98 914.244 1176.09 844.731 1152.1 781.812C1116.92 689.55 969.822 597.151 1028.79 520.784C1097.29 432.059 1250.02 598.8 1340.42 537.912C1427.72 479.113 1358.32 268.545 1455.64 233.292Z" fill="#48F3DF" fill-opacity="0.3"/>
</g>
<g filter="url(#filter2_f_368_1854)">
<path d="M0 1080C639.538 1080 1279.08 1080 1918.61 1080" stroke="url(#paint0_linear_368_1854)" stroke-miterlimit="10"/>
<path d="M0 1072.03C323.846 1072.09 647.532 1070.67 971.299 1069.06C1111.38 1068.36 1252.43 1068.59 1392.5 1070.06C1567.84 1071.91 1743.26 1070.17 1918.56 1072.03" stroke="url(#paint1_linear_368_1854)" stroke-miterlimit="10"/>
<path d="M0 1064.19C91.7604 1064.19 183.547 1064.47 275.295 1064.33C357.289 1064.21 439.096 1061.54 521.064 1061.07C673.753 1060.22 826.416 1061.21 979.093 1060.2C1114.61 1059.3 1251.52 1056.92 1386.94 1060.56C1465.87 1062.7 1543.99 1063.67 1622.99 1064.55C1721.58 1065.66 1820.06 1062.66 1918.61 1064.19" stroke="url(#paint2_linear_368_1854)" stroke-miterlimit="10"/>
<path d="M0 1056.44C90.4413 1056.44 181.123 1057.05 271.537 1056.4C356.503 1055.78 440.975 1051.42 525.874 1050.3C678.856 1048.29 830.64 1054.05 983.463 1053.02C1117.94 1052.13 1250.51 1044.92 1385.13 1051.37C1463.82 1055.15 1540.07 1058.1 1619.34 1058.97C1719.27 1060.04 1818.7 1054.83 1918.61 1056.44" stroke="url(#paint3_linear_368_1854)" stroke-miterlimit="10"/>
<path d="M0 1048.85C88.8025 1048.85 178.258 1049.83 266.994 1048.48C355.73 1047.14 443.2 1040.96 531.669 1038.96C612.091 1037.15 691.381 1037.63 771.376 1041.58C843.071 1045.13 912.714 1047.69 984.995 1047.3C1048.35 1046.96 1107.71 1043.09 1170.27 1039.49C1241.88 1035.36 1315.6 1037.29 1386.53 1042.55C1464.61 1048.34 1538.25 1053.88 1617.98 1054.51C1718.55 1055.32 1817.98 1047.47 1918.61 1048.85" stroke="url(#paint4_linear_368_1854)" stroke-miterlimit="10"/>
<path d="M0 1041.37C86.8839 1041.37 175.087 1042.68 261.824 1040.58C354.504 1038.34 445.611 1030.24 538.091 1027.2C617.495 1024.55 697.428 1026.37 775.587 1032.58C845.363 1038.06 912.821 1042.94 984.143 1042.72C1050.19 1042.51 1109.95 1035.79 1174.06 1030.36C1246.83 1024.19 1318.85 1026.53 1390.52 1034.01C1467.33 1042.04 1538.24 1050.69 1618.51 1050.92C1719.25 1051.21 1817.7 1040.47 1918.61 1041.37" stroke="url(#paint5_linear_368_1854)" stroke-miterlimit="10"/>
<path d="M0 1034C84.8321 1033.97 171.743 1035.61 256.282 1032.75C353.331 1029.49 448.143 1019.43 544.833 1015.22C625.975 1011.7 700.96 1014.98 779.224 1023.83C846.229 1031.41 911.129 1039 981.411 1039.01C1050.91 1039.01 1112.73 1028.92 1178.68 1021.56C1253.81 1013.17 1323.1 1015.61 1396.51 1025.74C1471.23 1036.05 1539.83 1048.23 1620.55 1047.96C1721.14 1047.6 1817.74 1033.76 1918.61 1034" stroke="url(#paint6_linear_368_1854)" stroke-miterlimit="10"/>
<path d="M0 1026.75C82.687 1026.71 168.292 1028.53 250.486 1025C351.986 1020.66 450.341 1008.65 551.482 1003.24C633.756 998.83 705.171 1003.54 782.169 1015.33C845.696 1025.06 908.091 1035.6 977.228 1035.93C1050.29 1036.28 1116.17 1022.42 1183.75 1013.09C1261.78 1002.32 1328.41 1004.61 1403.83 1017.74C1475.64 1030.24 1542.61 1046.3 1623.67 1045.4C1723.9 1044.29 1817.95 1027.27 1918.59 1026.75" stroke="url(#paint7_linear_368_1854)" stroke-miterlimit="10"/>
<path d="M0 1019.62C80.5685 1019.56 164.841 1021.5 244.81 1017.39C350.653 1011.96 452.566 998.07 557.917 991.443C641.856 986.159 709.221 992.208 784.593 1007.1C844.204 1018.88 904.08 1032.48 972.258 1033.2C1048.9 1034 1120.06 1015.99 1189.19 1004.93C1225.41 999.162 1263.58 993.761 1303.06 995.003C1341.7 996.223 1378.28 1002.76 1412.07 1009.99C1480.18 1024.54 1546.54 1044.56 1627.58 1043.03C1727.38 1041.14 1818.29 1020.95 1918.63 1019.64" stroke="url(#paint8_linear_368_1854)" stroke-miterlimit="10"/>
<path d="M0.0656738 1012.62C78.6756 1012.54 161.576 1014.52 239.36 1009.94C349.24 1003.48 454.338 987.804 563.592 980.03C649.45 973.917 712.924 981.192 786.258 999.153C841.858 1012.77 899.23 1029.42 966.794 1030.55C1046.74 1031.88 1124.01 1009.64 1194.47 997.054C1231.38 990.459 1272.08 983.505 1313.3 985.036C1351.94 986.471 1388.14 994.308 1420.45 1002.43C1484.87 1018.64 1550.55 1042.71 1631.79 1040.56C1731.16 1037.93 1818.57 1014.67 1918.64 1012.62" stroke="url(#paint9_linear_368_1854)" stroke-miterlimit="10"/>
<path d="M0.0800781 1005.73C76.8113 1005.63 158.486 1007.62 234.284 1002.7C347.749 995.329 455.671 977.994 568.31 969.182C611.199 965.831 651.849 963.893 693.859 969.771C728.088 974.562 758.199 982.973 787.245 991.474C839.207 1006.67 894.061 1026.16 961.466 1027.69C1044.34 1029.57 1127.83 1003.3 1199.43 989.429C1236.97 982.153 1280.18 973.727 1322.98 975.51C1361.79 977.116 1397.51 986.147 1428.44 995.066C1489.43 1012.65 1554.32 1040.47 1636.01 1037.78C1735.01 1034.51 1818.79 1008.38 1918.69 1005.7" stroke="url(#paint10_linear_368_1854)" stroke-miterlimit="10"/>
<path d="M0.0930176 998.959C75.2121 998.857 155.781 1000.83 229.834 995.688C346.176 987.604 456.15 968.781 571.627 959.139C614.663 955.547 655.193 953.32 696.99 959.99C730.899 965.435 759.798 974.777 787.431 984.113C836.342 1000.62 888.904 1022.56 956.642 1024.4C999.931 1025.59 1043.46 1016.51 1080.85 1008.83C1122.32 1000.31 1162.2 990.596 1203.66 982.063C1241.77 974.225 1287.07 964.61 1331.3 966.618C1370.4 968.39 1405.56 978.342 1435.38 987.925C1493.57 1006.66 1557.24 1037.64 1639.71 1034.5C1738.54 1030.75 1818.82 1002.02 1918.71 998.937" stroke="url(#paint11_linear_368_1854)" stroke-miterlimit="10"/>
<path d="M0.106689 992.312C73.8801 992.21 153.596 994.191 226.223 988.95C344.618 980.411 455.871 960.303 573.279 950.062C616.115 946.315 656.952 943.922 698.322 951.069C732.191 956.92 760.224 967.065 786.858 977.044C833.731 994.598 884.308 1018.36 952.872 1020.41C997.346 1021.72 1042.14 1011.89 1080.11 1003.77C1122.98 994.587 1164.05 984.137 1206.92 974.945C1245.55 966.653 1292.19 956.283 1337.61 958.398C1377.11 960.239 1411.67 970.812 1440.68 980.946C1497.08 1000.64 1558.79 1033.84 1642.59 1030.49C1741.42 1026.55 1818.63 995.502 1918.72 992.333" stroke="url(#paint12_linear_368_1854)" stroke-miterlimit="10"/>
<path d="M0.133301 985.779C72.8674 985.694 152.09 987.712 223.652 982.514C343.046 973.841 454.605 952.679 572.92 942.16C615.169 938.412 656.766 935.971 697.55 943.166C731.698 949.189 759.345 959.879 785.486 970.281C831.613 988.665 880.697 1013.38 950.7 1015.37C996.161 1016.66 1041.07 1006.73 1079.58 998.237C1123.35 988.601 1165.19 977.615 1208.94 967.968C1248.07 959.339 1294.9 948.803 1341.26 950.902C1381.23 952.711 1415.2 963.477 1443.85 974.045C1499.81 994.682 1558.58 1028.72 1644.33 1025.41C1743.42 1021.58 1818.3 988.622 1918.8 985.79" stroke="url(#paint13_linear_368_1854)" stroke-miterlimit="10"/>
<path d="M0.146484 979.355C72.6141 979.173 151.584 981.443 222.839 976.143C341.42 967.304 451.554 945.511 568.936 934.745C611.065 930.885 652.635 928.572 693.392 935.682C728.034 941.736 756.227 952.556 782.755 963.086C829.734 981.737 879.338 1006.76 950.26 1009.1C996.041 1010.6 1040.69 1000.8 1079.37 992.166C1123.2 982.38 1164.96 971.18 1208.78 961.389C1248.1 952.599 1294.69 942.208 1341.39 944.456C1381.63 946.394 1415.4 957.181 1444.1 967.866C1500.29 988.793 1557.94 1022.38 1644.37 1019.26C1743.74 1015.68 1817.85 981.828 1918.76 979.355" stroke="url(#paint14_linear_368_1854)" stroke-miterlimit="10"/>
<path d="M0.159668 973.076C72.9338 972.744 151.664 975.608 223.172 969.939C339.648 960.704 447.303 938.552 562.54 927.406C605.176 923.278 645.654 921.132 686.997 928.289C722.265 934.387 751.457 945.093 778.957 955.533C827.496 973.98 879.191 999.259 950.114 1002.44C995.614 1004.49 1040.42 994.655 1078.77 986.031C1122.07 976.293 1163.2 965.083 1206.49 955.334C1245.73 946.496 1292.32 936.185 1338.95 938.857C1379.07 941.153 1413.34 952.096 1442.44 962.663C1498.92 983.167 1558.23 1016.12 1643.63 1013.09C1743.23 1009.55 1817.58 975.506 1918.73 973.076" stroke="url(#paint15_linear_368_1854)" stroke-miterlimit="10"/>
<path d="M0.186768 966.902C73.3739 966.506 151.891 970.168 223.839 964.166C337.943 954.648 442.787 932.206 555.599 920.803C598.595 916.446 638.126 914.502 679.936 921.569C715.75 927.624 746.115 938.052 774.641 948.411C824.805 966.613 878.886 991.801 949.741 995.757C994.829 998.279 1039.29 988.648 1077.29 980.061C1119.86 970.425 1160.12 959.284 1202.67 949.653C1241.78 940.798 1287.94 930.782 1334.36 933.834C1374.51 936.478 1409.4 947.469 1439.15 957.924C1496.37 978 1557.64 1010.13 1642.37 1007.14C1742.42 1003.62 1817.18 969.354 1918.77 966.934" stroke="url(#paint16_linear_368_1854)" stroke-miterlimit="10"/>
<path d="M0.213379 960.848C73.9068 960.468 152.383 965.099 224.838 958.793C336.331 949.097 438.124 926.426 548.284 914.825C591.453 910.279 630.238 908.572 672.395 915.435C708.848 921.366 740.346 931.495 769.978 941.667C822.233 959.542 878.206 984.366 949.261 989.05C993.816 991.984 1037.49 982.771 1075.12 974.243C1116.75 964.799 1155.99 953.755 1197.6 944.301C1236.57 935.441 1281.83 925.922 1327.97 929.311C1368.32 932.282 1403.92 943.23 1434.56 953.541C1492.94 973.172 1556.38 1004.32 1640.67 1001.35C1741.33 997.798 1816.66 963.3 1918.87 960.864" stroke="url(#paint17_linear_368_1854)" stroke-miterlimit="10"/>
<path d="M0.226318 954.911C74.5193 954.611 152.969 960.356 226.077 953.776C334.771 943.996 433.327 921.12 540.649 909.455C583.792 904.755 622.044 903.293 664.413 909.857C701.52 915.606 734.123 925.382 764.967 935.243C819.595 952.711 877.273 976.941 948.595 982.299C1034.67 988.772 1121.64 955.088 1191.39 939.21C1230.22 930.366 1274.25 921.506 1319.99 925.216C1360.66 928.519 1397 939.36 1428.7 949.515C1488.55 968.686 1554.37 998.718 1638.44 995.731C1739.85 992.134 1815.9 957.385 1918.84 954.911" stroke="url(#paint18_linear_368_1854)" stroke-miterlimit="10"/>
<path d="M0.253174 949.097C75.199 948.931 153.662 955.907 227.529 949.097C333.306 939.311 428.464 916.329 532.802 904.626C575.798 899.808 613.677 898.608 656.166 904.792C693.952 910.301 727.688 919.642 759.745 929.193C816.743 946.164 876.141 969.585 947.822 975.608C1032.59 982.717 1115.82 950.007 1184.28 934.386C1222.13 925.761 1266.26 917.067 1310.75 921.511C1352.05 925.633 1388.44 935.628 1421.93 945.8C1483.5 964.483 1551.85 993.301 1635.93 990.282C1738.2 986.615 1815.06 951.603 1918.87 949.06" stroke="url(#paint19_linear_368_1854)" stroke-miterlimit="10"/>
<path d="M0.279541 943.396C75.9316 943.396 154.475 951.71 229.168 944.649C331.933 934.933 423.6 911.854 524.861 900.216C700.734 879.985 792.481 954.671 946.969 968.964C1030.24 976.679 1109.27 945.147 1176.48 929.841C1214.16 921.276 1256.59 913.476 1300.51 918.171C1342.34 922.641 1379.58 932.416 1414.42 942.395C1477.91 960.597 1548.91 988.103 1633.15 985.035C1736.37 981.288 1814.14 946.003 1918.91 943.396" stroke="url(#paint20_linear_368_1854)" stroke-miterlimit="10"/>
<path d="M0.306396 937.817C76.6912 938.042 155.368 947.721 230.953 940.451C330.654 930.863 418.817 907.731 516.92 896.194C689.156 875.948 794.053 947.052 946.05 962.368C1027.88 970.623 1102.16 940.489 1168.16 925.478C1205.68 916.944 1246.25 910.172 1289.55 915.081C1331.93 919.899 1370.12 929.428 1406.36 939.198C1471.88 956.865 1545.59 983.048 1630.2 979.911C1734.43 976.051 1813.17 940.51 1918.95 937.817" stroke="url(#paint21_linear_368_1854)" stroke-miterlimit="10"/>
<path d="M0.333252 932.357C77.4775 932.813 156.314 943.905 232.845 936.453C329.496 927.041 414.048 903.882 509.113 892.501C677.697 872.313 795.572 939.531 945.104 955.87C1025.47 964.65 1094.7 935.998 1159.54 921.281C1196.92 912.796 1235.48 907.111 1278.12 912.18C1321.09 917.314 1360.26 926.635 1397.94 936.164C1465.57 953.295 1541.99 978.114 1627.03 974.907C1732.28 970.929 1812.06 935.12 1918.89 932.336" stroke="url(#paint22_linear_368_1854)" stroke-miterlimit="10"/>
<path d="M0.359863 927.015C78.2503 927.705 157.313 940.216 234.857 932.609C328.523 923.412 409.584 900.242 501.585 889.053C666.585 868.983 797.064 932.165 944.145 949.483C1023.06 958.777 1087.09 931.651 1150.82 917.218C1188.05 908.786 1224.73 904.22 1266.66 909.471C1310.23 914.932 1350.42 924.017 1389.52 933.31C1459.27 949.906 1538.38 973.354 1623.95 970.067C1730.31 965.977 1811.08 929.916 1918.97 927.015" stroke="url(#paint23_linear_368_1854)" stroke-miterlimit="10"/>
<path d="M0.38623 921.794C78.9961 922.715 158.326 936.612 236.762 928.877C327.55 919.92 405.187 896.756 494.256 885.787C655.993 865.872 798.57 924.942 943.265 943.229C1020.74 953.026 1079.57 927.426 1142.25 913.25C1179.32 904.872 1214.2 901.424 1255.33 906.826C1299.5 912.618 1340.71 921.494 1381.2 930.531C1453 946.559 1534.76 968.684 1620.91 965.328C1728.34 961.125 1810.11 924.771 1919.05 921.805" stroke="url(#paint24_linear_368_1854)" stroke-miterlimit="10"/>
<path d="M0.413086 916.688C79.8091 917.828 159.325 933.059 238.721 925.216C326.777 916.517 401.137 893.368 487.435 882.634C646.067 862.901 800.049 917.871 942.32 937.127C1018.5 947.438 1072.07 923.257 1133.89 909.364C1170.83 901.066 1203.89 898.657 1244.33 904.214C1289.07 910.339 1331.28 919.038 1373.09 927.812C1446.86 943.289 1531.13 964.114 1617.89 960.672C1726.33 956.363 1809.05 919.745 1919 916.688" stroke="url(#paint25_linear_368_1854)" stroke-miterlimit="10"/>
<path d="M0.439941 911.704C80.5821 913.032 160.324 929.515 240.613 921.592C326.151 913.155 397.433 890.006 481.146 879.524C562.354 869.353 648.745 880.836 724.597 893.106C797.744 904.942 867.281 920.467 941.52 931.201C1016.75 942.079 1064.72 919.038 1126.08 905.505C1207.55 887.544 1291 910.323 1365.57 925.093C1441.13 940.04 1527.78 959.623 1615.1 956.105C1724.5 951.705 1808.13 914.83 1919.05 911.698" stroke="url(#paint26_linear_368_1854)" stroke-miterlimit="10"/>
<path d="M0.466064 906.833C81.3543 908.316 161.11 925.94 242.425 917.957C325.685 909.777 394.128 886.645 475.59 876.393C556.052 866.253 644.721 877.265 720.932 888.502C795.559 899.509 866.587 914.044 940.814 925.479C1015.04 936.914 1058.4 915.002 1118.97 901.661C1198.59 884.128 1285.51 908.621 1358.79 922.353C1435.94 936.807 1524.78 955.202 1612.58 951.637C1722.84 947.156 1807.29 910.034 1919.03 906.833" stroke="url(#paint27_linear_368_1854)" stroke-miterlimit="10"/>
<path d="M0.49292 902.084C82.1406 903.69 161.83 922.299 244.09 914.269C325.365 906.34 391.291 883.218 470.593 873.164C550.442 863.073 641.137 873.635 717.695 883.941C793.64 894.172 866.094 907.834 940.201 919.97C975.162 925.693 1000.78 925.929 1034.59 918.546C1062.06 912.545 1085.3 903.829 1112.73 897.785C1149.33 889.712 1178.48 889.937 1216.81 895.938C1262.87 903.16 1307.75 911.464 1352.94 919.531C1431.38 933.493 1522.15 950.817 1610.36 947.22C1721.37 942.691 1806.54 905.323 1919.07 902.084" stroke="url(#paint28_linear_368_1854)" stroke-miterlimit="10"/>
<path d="M0.519531 897.448C82.9267 899.054 162.376 918.551 245.596 910.494C325.258 902.78 388.932 879.573 466.636 869.776C546.072 859.759 638.432 869.883 715.297 879.412C792.161 888.941 865.961 901.897 939.828 914.745C973.963 920.682 998.919 921.522 1032.43 914.177C1059 908.353 1081.17 899.755 1107.67 893.888C1144.07 885.825 1172.77 886.682 1210.43 892.881C1256.72 900.499 1302.29 908.786 1348.33 916.629C1427.76 930.152 1520.3 946.512 1608.64 942.904C1720.26 938.348 1806 900.756 1919.08 897.496" stroke="url(#paint29_linear_368_1854)" stroke-miterlimit="10"/>
<path d="M0.546387 892.941C83.7263 894.504 162.723 914.676 246.875 906.597C325.352 899.054 387.041 875.67 463.665 866.163C542.995 856.307 636.354 865.97 713.698 874.819C791.668 883.733 866.108 896.147 939.668 909.702C973.111 915.859 997.786 917.154 1031.04 909.809C1056.89 904.108 1078.17 895.564 1103.94 889.809C1140.16 881.72 1168.84 883.031 1205.93 889.466C1252.28 897.496 1298.38 905.805 1345.14 913.482C1425.08 926.614 1519.17 942.128 1607.44 938.546C1719.5 933.996 1805.66 896.19 1919.21 892.941" stroke="url(#paint30_linear_368_1854)" stroke-miterlimit="10"/>
<path d="M0.572754 888.546C84.5121 889.964 162.829 910.623 247.914 902.523C325.578 895.13 385.934 871.645 461.64 862.25C540.716 852.443 635.301 861.897 712.845 870.194C791.615 878.626 866.388 890.703 939.601 904.991C972.498 911.415 997.306 912.968 1030.39 905.575C1055.7 899.916 1076.32 891.367 1101.59 885.655C1137.68 877.496 1166.76 879.038 1203.41 885.767C1249.67 894.258 1296.12 902.625 1343.39 910.173C1423.57 922.973 1518.76 937.791 1606.67 934.263C1719 929.761 1805.36 891.752 1919.19 888.546" stroke="url(#paint31_linear_368_1854)" stroke-miterlimit="10"/>
<path d="M0.613281 884.263C84.979 885.537 162.75 906.421 248.354 898.246C325.752 890.858 385.748 867.395 461.214 858.053C540.21 848.278 635.222 857.924 712.792 866.046C791.842 874.322 866.375 886.308 939.682 900.66C972.458 907.085 997.613 908.423 1030.47 901.078C1055.61 895.457 1076.09 886.983 1101.23 881.345C1137.21 873.283 1166.81 874.782 1203.12 881.704C1249.18 890.484 1295.68 898.915 1343.15 906.389C1422.95 918.953 1519.37 933.605 1606.6 929.943C1718.77 925.243 1805.7 887.877 1919.23 884.279" stroke="url(#paint32_linear_368_1854)" stroke-miterlimit="10"/>
<path d="M0.639404 880.049C85.1917 881.259 162.736 902.282 248.54 894.011C325.818 886.559 386.121 863.293 461.64 854.01C540.636 844.299 635.434 854.369 712.885 862.544C791.682 870.863 865.895 882.828 939.708 896.5C1009.58 909.44 1044.21 889.541 1101.75 877.132C1137.72 869.375 1167.52 870.788 1203.49 877.737C1249.35 886.597 1295.77 895.007 1343.23 902.394C1422.56 914.739 1520.24 929.461 1606.84 925.489C1718.53 920.361 1806.52 884.514 1919.29 880.13" stroke="url(#paint33_linear_368_1854)" stroke-miterlimit="10"/>
<path d="M0.66626 875.902C85.4717 877.069 162.829 898.247 248.9 889.906C326.178 882.411 386.721 859.392 462.28 850.194C541.276 840.558 635.794 851.013 713.125 859.215C791.615 867.539 865.548 879.451 939.788 892.433C1009.07 904.553 1044.94 885.008 1102.52 873.161C1138.5 865.741 1168.56 867.111 1204.21 874.071C1249.86 882.979 1296.14 891.325 1343.59 898.584C1422.6 910.677 1521.25 925.244 1607.13 921.004C1718.27 915.522 1807.33 881.234 1919.28 876.153" stroke="url(#paint34_linear_368_1854)" stroke-miterlimit="10"/>
<path d="M0.692627 871.826C85.7912 872.96 163.029 894.31 249.42 885.932C326.604 878.448 387.507 855.69 463.119 846.589C542.115 837.114 636.327 847.831 713.511 856.038C791.628 864.336 865.402 876.156 939.908 888.421C1008.7 899.733 1045.79 880.621 1103.52 869.325C1139.59 862.275 1169.87 863.645 1205.26 870.6C1250.66 879.524 1296.85 887.773 1344.22 894.861C1423.03 906.666 1522.27 920.874 1607.57 916.414C1718.16 910.638 1808.25 877.961 1919.35 872.254" stroke="url(#paint35_linear_368_1854)" stroke-miterlimit="10"/>
<path d="M0.719238 867.82C86.1775 868.944 163.269 890.46 250.099 882.076C327.217 874.635 388.493 852.134 464.171 843.215C543.141 833.906 636.873 844.864 714.031 853.044C791.721 861.289 865.268 872.986 940.081 884.512C1008.35 895.032 1046.75 876.423 1104.75 865.737C1140.94 859.067 1171.46 860.486 1206.62 867.418C1251.66 876.388 1297.88 884.369 1345.07 891.327C1423.81 902.805 1523.34 916.489 1608.14 911.826C1718.01 905.814 1809.21 874.785 1919.33 868.537" stroke="url(#paint36_linear_368_1854)" stroke-miterlimit="10"/>
<path d="M0.759277 863.894C86.604 865.018 163.668 886.72 250.925 878.348C327.976 870.965 389.665 848.765 465.437 840.028C544.38 830.927 637.713 842.057 714.724 850.2C792.001 858.358 865.348 869.895 940.334 880.671C1008.1 890.414 1047.88 872.357 1106.23 862.32C1142.59 856.062 1173.34 857.561 1208.3 864.461C1253.07 873.371 1299.12 881.203 1346.2 887.914C1424.98 899.033 1524.5 911.972 1608.85 907.186C1718.01 900.993 1810.25 871.661 1919.41 864.927" stroke="url(#paint37_linear_368_1854)" stroke-miterlimit="10"/>
<path d="M0.786133 860.049C87.0705 861.179 164.121 883.069 251.871 874.76C328.869 867.469 390.998 845.589 466.796 837.062C545.699 828.186 638.539 839.449 715.483 847.522C792.188 855.552 865.508 866.907 940.574 876.918C1007.86 885.895 1049.11 868.454 1107.85 859.096C1144.41 853.272 1175.4 854.883 1210.22 861.773C1254.68 870.598 1300.52 878.253 1347.45 884.691C1426.37 895.398 1525.58 907.475 1609.57 902.577C1717.97 896.26 1811.21 868.657 1919.39 861.511" stroke="url(#paint38_linear_368_1854)" stroke-miterlimit="10"/>
<path d="M0.812988 856.281C87.577 857.437 164.695 879.536 252.951 871.271C329.895 864.108 392.477 842.576 468.355 834.279C547.205 825.66 639.538 837.003 716.31 844.985C792.481 852.908 865.722 864.006 940.814 873.246C1007.63 881.463 1050.43 864.68 1109.61 856.04C1146.4 850.687 1177.63 852.421 1212.34 859.252C1256.51 867.972 1302.16 875.423 1348.95 881.549C1428.12 891.844 1526.76 902.898 1610.45 897.914C1718.07 891.49 1812.26 865.682 1919.43 858.165" stroke="url(#paint39_linear_368_1854)" stroke-miterlimit="10"/>
<path d="M0.839111 852.596C88.1228 853.785 165.227 876.098 254.136 867.944C331.027 860.889 394.102 839.721 470.06 831.68C548.843 823.345 640.604 834.726 717.268 842.607C792.907 850.385 866.081 861.205 941.107 869.663C1007.47 877.158 1051.91 861.06 1111.56 853.164C1148.6 848.265 1180.07 850.187 1214.7 856.911C1258.55 865.499 1303.99 872.722 1350.6 878.518C1430.07 888.341 1527.92 898.256 1611.37 893.213C1718.19 886.789 1813.28 862.752 1919.43 854.925" stroke="url(#paint40_linear_368_1854)" stroke-miterlimit="10"/>
<path d="M0.866211 849.003C88.6961 850.234 165.88 872.762 255.349 864.721C332.28 857.831 395.848 837.027 471.899 829.264C550.603 821.234 641.723 832.61 718.388 840.373C793.467 847.986 866.588 858.495 941.533 866.166C1007.45 872.917 1053.61 857.568 1113.76 850.454C1151.06 846.042 1182.76 848.152 1217.36 854.843C1260.9 863.281 1306.11 870.252 1352.52 875.685C1432.3 885.005 1529.16 893.699 1612.42 888.598C1718.4 882.136 1814.34 859.972 1919.48 851.878" stroke="url(#paint41_linear_368_1854)" stroke-miterlimit="10"/>
<path d="M0.892578 845.52C89.2688 846.788 166.546 869.53 256.801 861.623C333.612 854.888 397.713 834.492 473.844 827.023C552.454 819.309 642.949 830.658 719.44 838.266C793.973 845.696 867.04 855.857 941.826 862.747C1007.33 868.786 1055.32 854.182 1115.93 847.886C1153.5 843.972 1185.45 846.28 1220.07 852.923C1263.28 861.192 1308.24 867.891 1354.42 872.94C1434.72 881.72 1530.39 889.054 1613.51 883.963C1718.67 877.539 1815.37 857.238 1919.51 848.914" stroke="url(#paint42_linear_368_1854)" stroke-miterlimit="10"/>
<path d="M0.919434 842.092C89.9351 843.436 167.359 866.397 258.254 858.64C335.051 852.093 399.711 832.103 475.896 824.945C554.44 817.573 644.255 828.858 720.64 836.337C794.613 843.58 867.627 853.356 942.213 859.464C1007.33 864.818 1057.21 851 1118.27 845.545C1156.13 842.146 1188.32 844.699 1222.98 851.252C1265.87 859.335 1310.58 865.744 1356.51 870.391C1437.31 878.592 1531.64 884.519 1614.66 879.422C1718.99 873.025 1816.38 854.662 1919.53 846.145" stroke="url(#paint43_linear_368_1854)" stroke-miterlimit="10"/>
<path d="M0.945801 838.778C90.6011 840.191 168.158 863.372 259.812 855.786C336.543 849.432 401.723 829.864 478.041 823.033C556.478 816.01 645.6 827.214 721.865 834.527C795.305 841.567 868.226 850.93 942.572 856.257C1007.35 860.899 1059.17 847.916 1120.7 843.275C1158.82 840.4 1191.23 843.205 1226.02 849.699C1268.57 857.581 1313.03 863.681 1358.69 867.901C1439.96 875.482 1532.85 879.936 1615.83 874.861C1719.34 868.538 1817.35 852.114 1919.56 843.425" stroke="url(#paint44_linear_368_1854)" stroke-miterlimit="10"/>
<path d="M0.972656 835.567C91.2541 837.055 169.011 860.455 261.371 853.051C338.116 846.9 403.842 827.767 480.253 821.273C558.583 814.619 646.999 825.711 723.211 832.853C796.132 839.689 868.946 848.603 943.052 853.153C1007.55 857.109 1061.34 844.973 1123.31 841.188C1161.71 838.838 1194.35 841.911 1229.27 848.308C1271.49 855.986 1315.68 861.771 1361.06 865.557C1442.88 872.479 1534.19 875.413 1617.14 870.375C1719.73 864.133 1818.33 849.689 1919.59 840.856" stroke="url(#paint45_linear_368_1854)" stroke-miterlimit="10"/>
<path d="M0.999512 832.457C91.9338 834.026 169.891 857.619 263.01 850.44C339.755 844.503 406.027 825.803 482.532 819.663C560.755 813.399 648.452 824.352 724.57 831.312C796.998 837.934 869.679 846.371 943.465 850.15C1007.74 853.443 1063.49 842.168 1125.85 839.24C1164.49 837.425 1197.39 840.777 1232.44 847.094C1274.33 854.553 1318.26 860.007 1363.32 863.341C1445.66 869.567 1535.36 870.954 1618.31 865.954C1720.16 859.819 1819.14 847.372 1919.52 838.41" stroke="url(#paint46_linear_368_1854)" stroke-miterlimit="10"/>
<path d="M1.02612 829.459C92.6266 831.108 170.81 854.942 264.676 847.95C341.407 842.227 408.265 823.977 484.863 818.217C562.954 812.328 649.917 823.158 726.022 829.925C797.97 836.349 870.491 844.267 943.972 847.281C1008.13 849.915 1065.78 839.518 1128.63 837.452C1167.54 836.173 1200.57 839.818 1235.96 846.05C1277.53 853.287 1321.19 858.403 1365.92 861.275C1553.78 873.744 1737.88 852.71 1919.71 836.114" stroke="url(#paint47_linear_368_1854)" stroke-miterlimit="10"/>
<path d="M1.05249 826.559C93.3325 828.299 171.743 852.34 266.381 845.568C343.112 840.076 410.543 822.281 487.235 816.858C565.192 811.344 651.423 822.04 727.368 828.609C798.903 834.814 871.211 842.217 944.358 844.45C1008.5 846.425 1067.96 836.955 1131.28 835.724C1170.42 834.974 1203.73 838.936 1239.32 845.076C1280.41 852.212 1324.04 856.762 1368.35 859.278C1551.43 869.68 1742.38 850.37 1919.67 833.887" stroke="url(#paint48_linear_368_1854)" stroke-miterlimit="10"/>
<path d="M1.0791 823.773C94.0386 825.604 172.689 849.855 268.1 843.308C344.844 838.024 412.835 820.706 489.62 815.647C567.443 810.524 652.928 821.075 728.794 827.424C799.942 833.393 871.997 840.273 944.811 841.777C1009.07 843.105 1070.21 834.528 1134.01 834.17C1173.38 833.95 1206.9 838.222 1242.77 844.288C1283.59 851.188 1326.93 855.348 1370.86 857.414C1454.55 861.349 1539.41 857.998 1622.4 853.185C1721.98 847.409 1821.71 841.07 1919.69 831.771" stroke="url(#paint49_linear_368_1854)" stroke-miterlimit="10"/>
<path d="M1.10596 821.102C93.9456 822.992 172.489 847.286 267.807 841.301C344.245 836.483 412.369 819.839 488.554 814.791C565.565 809.689 649.331 819.812 724.53 825.926C797.224 831.815 870.865 838.394 945.277 839.218C1011.34 839.952 1075.7 831.847 1141.62 832.794C1181.4 833.367 1214.56 838.592 1251.03 844.395C1288.91 850.423 1328.91 853.876 1369.36 855.509C1455.46 858.984 1540.85 853.86 1625.92 849.026C1724.12 843.448 1823.19 839.154 1919.76 829.828" stroke="url(#paint50_linear_368_1854)" stroke-miterlimit="10"/>
<path d="M1.11914 818.548C94.5983 820.529 173.461 845.027 269.485 839.272C345.937 834.689 414.607 818.484 490.912 813.805C567.763 809.115 650.863 819.094 725.956 825.01C798.303 830.717 871.664 836.788 945.69 836.788C1012.14 836.788 1077.93 829.758 1144.39 831.552C1184.22 832.623 1217.67 838.147 1254.41 843.828C1292.04 849.641 1331.77 852.73 1371.88 853.951C1458.25 856.58 1542.17 849.818 1627.22 845.118C1724.78 839.727 1823.84 837.43 1919.73 827.986" stroke="url(#paint51_linear_368_1854)" stroke-miterlimit="10"/>
<path d="M1.146 816.12C95.3313 818.192 174.354 842.887 271.191 837.357C347.669 832.988 416.873 817.239 493.284 812.924C569.975 808.582 652.422 818.491 727.475 824.214C799.423 829.712 872.503 835.237 946.144 834.455C1013.07 833.743 1080.15 827.769 1147.17 830.397C1187.06 831.966 1220.77 837.785 1257.76 843.342C1295.07 848.947 1334.61 851.671 1374.34 852.48C1460.95 854.252 1543.47 845.884 1628.5 841.313C1725.45 836.099 1824.36 835.809 1919.69 826.248" stroke="url(#paint52_linear_368_1854)" stroke-miterlimit="10"/>
<path d="M1.17236 813.811C96.0105 815.953 175.367 840.857 272.883 835.557C349.374 831.397 419.111 816.076 495.642 812.146C572.173 808.217 653.954 817.992 728.807 823.517C800.582 828.817 873.316 833.822 946.556 832.254C1014.07 830.808 1082.3 825.905 1149.88 829.358C1189.85 831.397 1223.8 837.532 1261.13 842.96C1298.46 848.389 1337.5 850.723 1376.86 851.13C1463.46 852.034 1544.9 842.099 1629.84 837.655C1726.22 832.612 1825.06 834.325 1919.75 824.625" stroke="url(#paint53_linear_368_1854)" stroke-miterlimit="10"/>
<path d="M1.1853 811.627C96.6763 813.875 176.312 838.93 274.521 833.876C351.053 829.92 421.295 815.064 497.933 811.466C574.251 807.885 655.526 817.596 730.246 822.934C801.807 828.041 874.142 832.522 947.022 830.182C1015.2 827.993 1084.44 824.154 1152.62 828.415C1192.47 830.91 1226.82 837.366 1264.42 842.672C1301.33 847.875 1340.36 849.878 1379.3 849.894C1465.9 849.936 1546.3 838.48 1631.11 834.154C1727.05 829.261 1825.64 832.971 1919.75 823.116" stroke="url(#paint54_linear_368_1854)" stroke-miterlimit="10"/>
<path d="M1.19922 809.577C97.3298 811.901 177.205 837.163 276.121 832.302C352.692 828.555 423.441 814.101 500.172 810.889C576.411 807.677 656.872 817.313 731.605 822.463C803.02 827.366 874.995 831.344 947.449 828.244C1016.36 825.3 1086.5 822.527 1155.3 827.581C1195.14 830.498 1229.78 837.281 1267.66 842.463C1304.39 847.484 1343.1 849.128 1381.67 848.764C1468.14 847.956 1547.7 835.032 1632.39 830.809C1727.78 826.055 1826.12 831.762 1919.79 821.708" stroke="url(#paint55_linear_368_1854)" stroke-miterlimit="10"/>
<path d="M1.22583 807.655C97.956 810.059 178.111 835.493 277.68 830.846C354.291 827.265 425.573 813.276 502.344 810.369C578.422 807.489 658.231 817.109 732.924 822.067C804.206 826.783 875.821 830.263 947.862 826.419C1017.55 822.704 1088.55 820.98 1157.83 826.81C1197.63 830.156 1232.56 837.26 1270.78 842.335C1307.28 847.153 1345.79 848.481 1384.03 847.747C1470.27 846.104 1549.15 831.778 1633.7 827.645C1728.63 823.004 1826.68 830.691 1919.89 820.439" stroke="url(#paint56_linear_368_1854)" stroke-miterlimit="10"/>
<path d="M1.23926 805.866C98.5023 808.345 178.951 833.961 279.159 829.502C355.81 826.086 427.491 812.521 504.436 809.935C580.381 807.387 659.604 816.991 734.177 821.777C805.365 826.354 876.62 829.309 948.235 824.737C1018.73 820.24 1090.37 819.544 1160.26 826.129C1199.97 829.877 1235.24 837.302 1273.71 842.259C1310.03 846.938 1348.32 847.907 1386.16 846.826C1472.1 844.368 1550.43 828.72 1634.82 824.641C1729.42 820.085 1827.07 829.743 1919.87 819.245" stroke="url(#paint57_linear_368_1854)" stroke-miterlimit="10"/>
<path d="M1.2522 804.224C99.1282 806.761 179.79 832.549 280.557 828.266C357.275 825.011 429.396 811.847 506.421 809.577C582.246 807.345 660.856 816.949 735.362 821.585C806.484 826.013 877.393 828.475 948.608 823.191C1019.82 817.907 1092.17 818.218 1162.6 825.531C1202.22 829.648 1237.84 837.308 1276.52 842.244C1312.49 846.843 1350.84 847.421 1388.21 845.992C1473.8 842.78 1551.69 825.868 1635.91 821.842C1730.1 817.34 1827.47 828.952 1919.87 818.17" stroke="url(#paint58_linear_368_1854)" stroke-miterlimit="10"/>
<path d="M1.33252 802.692C99.7414 805.283 180.576 831.242 281.943 827.125C358.634 824.025 431.182 811.258 508.3 809.282C583.952 807.344 662.055 816.98 736.482 821.483C807.564 825.765 878.139 827.762 948.941 821.782C1021.08 815.696 1093.85 816.964 1164.79 824.994C1204.33 829.459 1240.25 837.409 1279.16 842.275C1314.98 846.756 1353.13 847.013 1390.12 845.294C1430.47 843.415 1469.82 839.111 1508.56 834.336C1550.37 829.191 1593.4 821.343 1636.95 819.266C1730.82 814.786 1827.85 828.324 1919.88 817.221" stroke="url(#paint59_linear_368_1854)" stroke-miterlimit="10"/>
<path d="M1.33252 801.353C100.221 803.986 181.203 830.111 283.156 826.134C359.914 823.136 432.848 810.721 510.059 809.04C585.591 807.375 663.135 817.07 737.494 821.46C808.576 825.646 878.872 827.172 949.261 820.518C1022.18 813.623 1095.44 815.812 1166.89 824.538C1206.26 829.356 1242.49 837.547 1281.59 842.344C1317.28 846.718 1355.25 846.685 1391.88 844.673C1432.15 842.467 1471.27 837.788 1509.79 832.708C1551.29 827.236 1594.38 818.981 1637.92 816.888C1731.5 812.397 1828.23 827.836 1919.89 816.353" stroke="url(#paint60_linear_368_1854)" stroke-miterlimit="10"/>
<path d="M1.33252 800.139C100.674 802.815 181.869 829.095 284.262 825.235C361.073 822.334 434.353 810.294 511.631 808.854C587.056 807.446 664.081 817.254 738.387 821.531C809.482 825.616 879.525 826.713 949.501 819.39C1023.26 811.697 1096.85 814.748 1168.81 824.143C1208.03 829.261 1244.53 837.704 1283.83 842.447C1319.37 846.729 1357.11 846.43 1393.47 844.154C1433.66 841.638 1472.58 836.606 1510.9 831.247C1552.12 825.482 1595.26 816.863 1638.8 814.737C1732.07 810.187 1828.57 827.505 1919.93 815.61" stroke="url(#paint61_linear_368_1854)" stroke-miterlimit="10"/>
<path d="M1.33252 799.072C101.087 801.749 182.415 828.211 285.247 824.442C362.152 821.621 435.805 809.913 513.163 808.708C588.508 807.531 665.053 817.483 739.28 821.675C810.401 825.684 880.244 826.375 949.794 818.425C1024.31 809.908 1098.09 813.762 1170.55 823.778C1209.65 829.191 1246.38 837.853 1285.84 842.553C1321.26 846.766 1358.87 846.231 1394.89 843.715C1435.02 840.91 1473.72 835.556 1511.87 829.94C1552.87 823.896 1596.03 814.983 1639.63 812.809C1732.71 808.162 1828.97 827.317 1919.93 814.951" stroke="url(#paint62_linear_368_1854)" stroke-miterlimit="10"/>
<path d="M1.33252 798.163C101.474 800.84 182.881 827.468 286.114 823.758C363.031 820.995 437.018 809.598 514.442 808.581C589.708 807.612 665.746 817.74 739.972 821.873C811.134 825.835 880.844 826.156 949.994 817.591C1025.29 808.26 1099.1 812.842 1172.1 823.479C1211.02 829.154 1247.97 838.014 1287.58 842.682C1322.88 846.847 1360.31 846.108 1396.07 843.378C1436.15 840.31 1474.68 834.668 1512.67 828.817C1553.48 822.526 1596.61 813.383 1640.32 811.15C1733.2 806.359 1829.35 827.318 1919.95 814.405" stroke="url(#paint63_linear_368_1854)" stroke-miterlimit="10"/>
<path d="M1.33252 797.402C100.981 800.079 182.122 826.707 284.754 823.254C365.856 820.529 444.253 808.222 526.087 808.473C596.05 808.687 666.252 817.922 735.362 821.894C808.789 826.113 879.072 825.995 950.181 816.964C1029.03 806.974 1102.91 812.226 1178.91 824.105C1212.98 829.427 1245.43 836.686 1279.76 841.67C1316.08 846.943 1355.95 846.429 1393.33 843.501C1435.74 840.182 1476.33 833.865 1516.33 827.441C1556.65 820.941 1599.51 811.792 1642.99 809.651C1734.92 805.149 1830.53 827.376 1919.93 813.971" stroke="url(#paint64_linear_368_1854)" stroke-miterlimit="10"/>
<path d="M1.33252 796.804C101.26 799.443 182.402 826.247 285.314 822.789C366.442 820.059 445.199 808.041 527.006 808.442C596.916 808.79 666.759 818.282 735.829 822.259C809.309 826.488 879.578 826.071 950.341 816.451C1029.99 805.615 1103.48 811.483 1180.11 823.945C1214.02 829.459 1246.57 836.783 1280.98 841.772C1317.22 847.051 1356.93 846.43 1394.09 843.335C1436.47 839.808 1476.91 833.218 1516.78 826.622C1557.05 819.963 1599.9 810.712 1643.48 808.463C1735.24 803.763 1830.96 827.655 1919.95 813.603" stroke="url(#paint65_linear_368_1854)" stroke-miterlimit="10"/>
<path d="M1.33252 796.374C101.46 798.97 182.535 825.936 285.74 822.424C366.882 819.662 445.812 807.9 527.726 808.43C597.609 808.88 667.118 818.677 736.162 822.686C809.682 826.969 880.058 826.289 950.367 816.091C1030.79 804.431 1103.7 810.791 1180.97 823.778C1214.8 829.458 1247.43 836.857 1281.87 841.905C1318.09 847.21 1357.45 846.541 1394.58 843.302C1480.37 835.808 1557.24 812.343 1643.85 807.611C1735.45 802.605 1831.42 828.109 1919.95 813.35" stroke="url(#paint66_linear_368_1854)" stroke-miterlimit="10"/>
<path d="M1.33252 796.104C101.62 798.647 182.668 825.773 285.994 822.175C367.148 819.344 446.345 807.812 528.219 808.428C598.115 808.963 667.318 819.103 736.335 823.182C809.882 827.529 880.498 826.651 950.407 815.901C1031.54 803.423 1103.63 810.152 1181.64 823.664C1215.19 829.461 1247.9 837.143 1282.42 841.994C1319.09 847.138 1357.26 846.721 1394.79 843.337C1480.73 835.586 1557.17 812.1 1644.09 807.025C1735.57 801.672 1831.96 828.733 1919.89 813.192" stroke="url(#paint67_linear_368_1854)" stroke-miterlimit="10"/>
<path d="M1.33252 796C101.727 798.468 182.628 825.754 286.06 822.023C367.215 819.095 446.518 807.756 528.552 808.42C598.461 808.987 667.398 819.555 736.402 823.731C809.948 828.18 880.937 827.157 950.434 815.867C1032.19 802.574 1103.27 809.544 1182.03 823.57C1253.97 836.376 1313.25 850.953 1394.73 843.448C1480.89 835.508 1556.97 812.221 1644.2 806.739C1735.57 800.995 1832.46 829.518 1920 813.163" stroke="url(#paint68_linear_368_1854)" stroke-miterlimit="10"/>
</g>
</g>
<defs>
<filter id="filter0_f_368_1854" x="-592" y="-451" width="1854.87" height="1852.97" filterUnits="userSpaceOnUse" color-interpolation-filters="sRGB">
<feFlood flood-opacity="0" result="BackgroundImageFix"/>
<feBlend mode="normal" in="SourceGraphic" in2="BackgroundImageFix" result="shape"/>
<feGaussianBlur stdDeviation="296" result="effect1_foregroundBlur_368_1854"/>
</filter>
<filter id="filter1_f_368_1854" x="423" y="-362" width="2089" height="2164" filterUnits="userSpaceOnUse" color-interpolation-filters="sRGB">
<feFlood flood-opacity="0" result="BackgroundImageFix"/>
<feBlend mode="normal" in="SourceGraphic" in2="BackgroundImageFix" result="shape"/>
<feGaussianBlur stdDeviation="296" result="effect1_foregroundBlur_368_1854"/>
</filter>
<filter id="filter2_f_368_1854" x="-4.00049" y="791.5" width="1928.09" height="293" filterUnits="userSpaceOnUse" color-interpolation-filters="sRGB">
<feFlood flood-opacity="0" result="BackgroundImageFix"/>
<feBlend mode="normal" in="SourceGraphic" in2="BackgroundImageFix" result="shape"/>
<feGaussianBlur stdDeviation="2" result="effect1_foregroundBlur_368_1854"/>
</filter>
<linearGradient id="paint0_linear_368_1854" x1="1.38321e+06" y1="1181.67" x2="1.38321e+06" y2="1107.45" gradientUnits="userSpaceOnUse">
<stop stop-color="#B82C2C"/>
<stop offset="1" stop-color="#FFDBDB"/>
</linearGradient>
<linearGradient id="paint1_linear_368_1854" x1="1.38317e+06" y1="1410.28" x2="1.38317e+06" y2="1160.91" gradientUnits="userSpaceOnUse">
<stop stop-color="#B82C2C"/>
<stop offset="1" stop-color="#FFDBDB"/>
</linearGradient>
<linearGradient id="paint2_linear_368_1854" x1="1.38321e+06" y1="1689.26" x2="1.38321e+06" y2="1228.87" gradientUnits="userSpaceOnUse">
<stop stop-color="#B82C2C"/>
<stop offset="1" stop-color="#FFDBDB"/>
</linearGradient>
<linearGradient id="paint3_linear_368_1854" x1="1.38321e+06" y1="2105.82" x2="1.38321e+06" y2="1334.12" gradientUnits="userSpaceOnUse">
<stop stop-color="#B82C2C"/>
<stop offset="1" stop-color="#FFDBDB"/>
</linearGradient>
<linearGradient id="paint4_linear_368_1854" x1="1.38321e+06" y1="2797.41" x2="1.38321e+06" y2="1512.48" gradientUnits="userSpaceOnUse">
<stop stop-color="#B82C2C"/>
<stop offset="1" stop-color="#FFDBDB"/>
</linearGradient>
<linearGradient id="paint5_linear_368_1854" x1="1.38321e+06" y1="3558.28" x2="1.38321e+06" y2="1709.71" gradientUnits="userSpaceOnUse">
<stop stop-color="#B82C2C"/>
<stop offset="1" stop-color="#FFDBDB"/>
</linearGradient>
<linearGradient id="paint6_linear_368_1854" x1="1.38321e+06" y1="4483.89" x2="1.38321e+06" y2="1950.72" gradientUnits="userSpaceOnUse">
<stop stop-color="#B82C2C"/>
<stop offset="1" stop-color="#FFDBDB"/>
</linearGradient>
<linearGradient id="paint7_linear_368_1854" x1="1.38319e+06" y1="5457.39" x2="1.38319e+06" y2="2204.63" gradientUnits="userSpaceOnUse">
<stop stop-color="#B82C2C"/>
<stop offset="1" stop-color="#FFDBDB"/>
</linearGradient>
<linearGradient id="paint8_linear_368_1854" x1="1.38322e+06" y1="6433.84" x2="1.38322e+06" y2="2459.47" gradientUnits="userSpaceOnUse">
<stop stop-color="#B82C2C"/>
<stop offset="1" stop-color="#FFDBDB"/>
</linearGradient>
<linearGradient id="paint9_linear_368_1854" x1="1.38318e+06" y1="7362.07" x2="1.38318e+06" y2="2701.57" gradientUnits="userSpaceOnUse">
<stop stop-color="#B82C2C"/>
<stop offset="1" stop-color="#FFDBDB"/>
</linearGradient>
<linearGradient id="paint10_linear_368_1854" x1="1.38321e+06" y1="8282.87" x2="1.38321e+06" y2="2941.49" gradientUnits="userSpaceOnUse">
<stop stop-color="#B82C2C"/>
<stop offset="1" stop-color="#FFDBDB"/>
</linearGradient>
<linearGradient id="paint11_linear_368_1854" x1="1.38321e+06" y1="8989.9" x2="1.38321e+06" y2="3124.86" gradientUnits="userSpaceOnUse">
<stop stop-color="#B82C2C"/>
<stop offset="1" stop-color="#FFDBDB"/>
</linearGradient>
<linearGradient id="paint12_linear_368_1854" x1="1.38321e+06" y1="9513.52" x2="1.38321e+06" y2="3259.49" gradientUnits="userSpaceOnUse">
<stop stop-color="#B82C2C"/>
<stop offset="1" stop-color="#FFDBDB"/>
</linearGradient>
<linearGradient id="paint13_linear_368_1854" x1="1.38324e+06" y1="9792.85" x2="1.38324e+06" y2="3329.13" gradientUnits="userSpaceOnUse">
<stop stop-color="#B82C2C"/>
<stop offset="1" stop-color="#FFDBDB"/>
</linearGradient>
<linearGradient id="paint14_linear_368_1854" x1="1.38321e+06" y1="9916.49" x2="1.38321e+06" y2="3357.06" gradientUnits="userSpaceOnUse">
<stop stop-color="#B82C2C"/>
<stop offset="1" stop-color="#FFDBDB"/>
</linearGradient>
<linearGradient id="paint15_linear_368_1854" x1="1.38318e+06" y1="10041.8" x2="1.38318e+06" y2="3385.45" gradientUnits="userSpaceOnUse">
<stop stop-color="#B82C2C"/>
<stop offset="1" stop-color="#FFDBDB"/>
</linearGradient>
<linearGradient id="paint16_linear_368_1854" x1="1.38319e+06" y1="10112.7" x2="1.38319e+06" y2="3399.68" gradientUnits="userSpaceOnUse">
<stop stop-color="#B82C2C"/>
<stop offset="1" stop-color="#FFDBDB"/>
</linearGradient>
<linearGradient id="paint17_linear_368_1854" x1="1.38323e+06" y1="10132.7" x2="1.38323e+06" y2="3400.65" gradientUnits="userSpaceOnUse">
<stop stop-color="#B82C2C"/>
<stop offset="1" stop-color="#FFDBDB"/>
</linearGradient>
<linearGradient id="paint18_linear_368_1854" x1="1.38321e+06" y1="10108.1" x2="1.38321e+06" y2="3390.07" gradientUnits="userSpaceOnUse">
<stop stop-color="#B82C2C"/>
<stop offset="1" stop-color="#FFDBDB"/>
</linearGradient>
<linearGradient id="paint19_linear_368_1854" x1="1.38321e+06" y1="10043.5" x2="1.38321e+06" y2="3369.07" gradientUnits="userSpaceOnUse">
<stop stop-color="#B82C2C"/>
<stop offset="1" stop-color="#FFDBDB"/>
</linearGradient>
<linearGradient id="paint20_linear_368_1854" x1="1.38322e+06" y1="9895.35" x2="1.38322e+06" y2="3326.3" gradientUnits="userSpaceOnUse">
<stop stop-color="#B82C2C"/>
<stop offset="1" stop-color="#FFDBDB"/>
</linearGradient>
<linearGradient id="paint21_linear_368_1854" x1="1.38323e+06" y1="9796.16" x2="1.38323e+06" y2="3296.48" gradientUnits="userSpaceOnUse">
<stop stop-color="#B82C2C"/>
<stop offset="1" stop-color="#FFDBDB"/>
</linearGradient>
<linearGradient id="paint22_linear_368_1854" x1="1.38317e+06" y1="9676.52" x2="1.38317e+06" y2="3261.37" gradientUnits="userSpaceOnUse">
<stop stop-color="#B82C2C"/>
<stop offset="1" stop-color="#FFDBDB"/>
</linearGradient>
<linearGradient id="paint23_linear_368_1854" x1="1.38321e+06" y1="9549.38" x2="1.38321e+06" y2="3224.42" gradientUnits="userSpaceOnUse">
<stop stop-color="#B82C2C"/>
<stop offset="1" stop-color="#FFDBDB"/>
</linearGradient>
<linearGradient id="paint24_linear_368_1854" x1="1.38324e+06" y1="9414.98" x2="1.38324e+06" y2="3185.64" gradientUnits="userSpaceOnUse">
<stop stop-color="#B82C2C"/>
<stop offset="1" stop-color="#FFDBDB"/>
</linearGradient>
<linearGradient id="paint25_linear_368_1854" x1="1.38319e+06" y1="9278.99" x2="1.38319e+06" y2="3146.5" gradientUnits="userSpaceOnUse">
<stop stop-color="#B82C2C"/>
<stop offset="1" stop-color="#FFDBDB"/>
</linearGradient>
<linearGradient id="paint26_linear_368_1854" x1="1.38321e+06" y1="9101.72" x2="1.38321e+06" y2="3096.59" gradientUnits="userSpaceOnUse">
<stop stop-color="#B82C2C"/>
<stop offset="1" stop-color="#FFDBDB"/>
</linearGradient>
<linearGradient id="paint27_linear_368_1854" x1="1.38317e+06" y1="8974.99" x2="1.38317e+06" y2="3060.02" gradientUnits="userSpaceOnUse">
<stop stop-color="#B82C2C"/>
<stop offset="1" stop-color="#FFDBDB"/>
</linearGradient>
<linearGradient id="paint28_linear_368_1854" x1="1.38318e+06" y1="8861.92" x2="1.38318e+06" y2="3027.08" gradientUnits="userSpaceOnUse">
<stop stop-color="#B82C2C"/>
<stop offset="1" stop-color="#FFDBDB"/>
</linearGradient>
<linearGradient id="paint29_linear_368_1854" x1="1.38317e+06" y1="8772.99" x2="1.38317e+06" y2="3000.55" gradientUnits="userSpaceOnUse">
<stop stop-color="#B82C2C"/>
<stop offset="1" stop-color="#FFDBDB"/>
</linearGradient>
<linearGradient id="paint30_linear_368_1854" x1="1.38324e+06" y1="8696.28" x2="1.38324e+06" y2="2977.2" gradientUnits="userSpaceOnUse">
<stop stop-color="#B82C2C"/>
<stop offset="1" stop-color="#FFDBDB"/>
</linearGradient>
<linearGradient id="paint31_linear_368_1854" x1="1.38321e+06" y1="8658.17" x2="1.38321e+06" y2="2964.03" gradientUnits="userSpaceOnUse">
<stop stop-color="#B82C2C"/>
<stop offset="1" stop-color="#FFDBDB"/>
</linearGradient>
<linearGradient id="paint32_linear_368_1854" x1="1.38321e+06" y1="8639.95" x2="1.38321e+06" y2="2956.09" gradientUnits="userSpaceOnUse">
<stop stop-color="#B82C2C"/>
<stop offset="1" stop-color="#FFDBDB"/>
</linearGradient>
<linearGradient id="paint33_linear_368_1854" x1="1.38324e+06" y1="8589.81" x2="1.38324e+06" y2="2939.7" gradientUnits="userSpaceOnUse">
<stop stop-color="#B82C2C"/>
<stop offset="1" stop-color="#FFDBDB"/>
</linearGradient>
<linearGradient id="paint34_linear_368_1854" x1="1.38321e+06" y1="8514.37" x2="1.38321e+06" y2="2916.63" gradientUnits="userSpaceOnUse">
<stop stop-color="#B82C2C"/>
<stop offset="1" stop-color="#FFDBDB"/>
</linearGradient>
<linearGradient id="paint35_linear_368_1854" x1="1.38324e+06" y1="8404.33" x2="1.38324e+06" y2="2884.41" gradientUnits="userSpaceOnUse">
<stop stop-color="#B82C2C"/>
<stop offset="1" stop-color="#FFDBDB"/>
</linearGradient>
<linearGradient id="paint36_linear_368_1854" x1="1.38321e+06" y1="8272.63" x2="1.38321e+06" y2="2846.49" gradientUnits="userSpaceOnUse">
<stop stop-color="#B82C2C"/>
<stop offset="1" stop-color="#FFDBDB"/>
</linearGradient>
<linearGradient id="paint37_linear_368_1854" x1="1.38324e+06" y1="8114.87" x2="1.38324e+06" y2="2801.69" gradientUnits="userSpaceOnUse">
<stop stop-color="#B82C2C"/>
<stop offset="1" stop-color="#FFDBDB"/>
</linearGradient>
<linearGradient id="paint38_linear_368_1854" x1="1.3832e+06" y1="7939.21" x2="1.3832e+06" y2="2752.21" gradientUnits="userSpaceOnUse">
<stop stop-color="#B82C2C"/>
<stop offset="1" stop-color="#FFDBDB"/>
</linearGradient>
<linearGradient id="paint39_linear_368_1854" x1="1.38321e+06" y1="7740.26" x2="1.38321e+06" y2="2696.58" gradientUnits="userSpaceOnUse">
<stop stop-color="#B82C2C"/>
<stop offset="1" stop-color="#FFDBDB"/>
</linearGradient>
<linearGradient id="paint40_linear_368_1854" x1="1.38319e+06" y1="7519.5" x2="1.38319e+06" y2="2635.2" gradientUnits="userSpaceOnUse">
<stop stop-color="#B82C2C"/>
<stop offset="1" stop-color="#FFDBDB"/>
</linearGradient>
<linearGradient id="paint41_linear_368_1854" x1="1.38321e+06" y1="7291.89" x2="1.38321e+06" y2="2572.11" gradientUnits="userSpaceOnUse">
<stop stop-color="#B82C2C"/>
<stop offset="1" stop-color="#FFDBDB"/>
</linearGradient>
<linearGradient id="paint42_linear_368_1854" x1="1.38321e+06" y1="7045.65" x2="1.38321e+06" y2="2504.12" gradientUnits="userSpaceOnUse">
<stop stop-color="#B82C2C"/>
<stop offset="1" stop-color="#FFDBDB"/>
</linearGradient>
<linearGradient id="paint43_linear_368_1854" x1="1.38321e+06" y1="6797.71" x2="1.38321e+06" y2="2435.79" gradientUnits="userSpaceOnUse">
<stop stop-color="#B82C2C"/>
<stop offset="1" stop-color="#FFDBDB"/>
</linearGradient>
<linearGradient id="paint44_linear_368_1854" x1="1.38321e+06" y1="6536.71" x2="1.38321e+06" y2="2364.05" gradientUnits="userSpaceOnUse">
<stop stop-color="#B82C2C"/>
<stop offset="1" stop-color="#FFDBDB"/>
</linearGradient>
<linearGradient id="paint45_linear_368_1854" x1="1.38321e+06" y1="6276.82" x2="1.38321e+06" y2="2292.73" gradientUnits="userSpaceOnUse">
<stop stop-color="#B82C2C"/>
<stop offset="1" stop-color="#FFDBDB"/>
</linearGradient>
<linearGradient id="paint46_linear_368_1854" x1="1.38314e+06" y1="6022.49" x2="1.38314e+06" y2="2223.02" gradientUnits="userSpaceOnUse">
<stop stop-color="#B82C2C"/>
<stop offset="1" stop-color="#FFDBDB"/>
</linearGradient>
<linearGradient id="paint47_linear_368_1854" x1="1.38325e+06" y1="5750.16" x2="1.38325e+06" y2="2148.56" gradientUnits="userSpaceOnUse">
<stop stop-color="#B82C2C"/>
<stop offset="1" stop-color="#FFDBDB"/>
</linearGradient>
<linearGradient id="paint48_linear_368_1854" x1="1.38321e+06" y1="5582.06" x2="1.38321e+06" y2="2102.31" gradientUnits="userSpaceOnUse">
<stop stop-color="#B82C2C"/>
<stop offset="1" stop-color="#FFDBDB"/>
</linearGradient>
<linearGradient id="paint49_linear_368_1854" x1="1.38321e+06" y1="5375.15" x2="1.38321e+06" y2="2045.68" gradientUnits="userSpaceOnUse">
<stop stop-color="#B82C2C"/>
<stop offset="1" stop-color="#FFDBDB"/>
</linearGradient>
<linearGradient id="paint50_linear_368_1854" x1="1.38324e+06" y1="5210.7" x2="1.38324e+06" y2="2000.63" gradientUnits="userSpaceOnUse">
<stop stop-color="#B82C2C"/>
<stop offset="1" stop-color="#FFDBDB"/>
</linearGradient>
<linearGradient id="paint51_linear_368_1854" x1="1.38321e+06" y1="5077.68" x2="1.38321e+06" y2="1964.13" gradientUnits="userSpaceOnUse">
<stop stop-color="#B82C2C"/>
<stop offset="1" stop-color="#FFDBDB"/>
</linearGradient>
<linearGradient id="paint52_linear_368_1854" x1="1.38316e+06" y1="4966.89" x2="1.38316e+06" y2="1933.68" gradientUnits="userSpaceOnUse">
<stop stop-color="#B82C2C"/>
<stop offset="1" stop-color="#FFDBDB"/>
</linearGradient>
<linearGradient id="paint53_linear_368_1854" x1="1.38318e+06" y1="4872.78" x2="1.38318e+06" y2="1907.82" gradientUnits="userSpaceOnUse">
<stop stop-color="#B82C2C"/>
<stop offset="1" stop-color="#FFDBDB"/>
</linearGradient>
<linearGradient id="paint54_linear_368_1854" x1="1.38317e+06" y1="4796.29" x2="1.38317e+06" y2="1886.77" gradientUnits="userSpaceOnUse">
<stop stop-color="#B82C2C"/>
<stop offset="1" stop-color="#FFDBDB"/>
</linearGradient>
<linearGradient id="paint55_linear_368_1854" x1="1.38319e+06" y1="4798.63" x2="1.38319e+06" y2="1886.59" gradientUnits="userSpaceOnUse">
<stop stop-color="#B82C2C"/>
<stop offset="1" stop-color="#FFDBDB"/>
</linearGradient>
<linearGradient id="paint56_linear_368_1854" x1="1.38325e+06" y1="4902.95" x2="1.38325e+06" y2="1913.35" gradientUnits="userSpaceOnUse">
<stop stop-color="#B82C2C"/>
<stop offset="1" stop-color="#FFDBDB"/>
</linearGradient>
<linearGradient id="paint57_linear_368_1854" x1="1.38322e+06" y1="5011.01" x2="1.38322e+06" y2="1941.22" gradientUnits="userSpaceOnUse">
<stop stop-color="#B82C2C"/>
<stop offset="1" stop-color="#FFDBDB"/>
</linearGradient>
<linearGradient id="paint58_linear_368_1854" x1="1.38321e+06" y1="5121.01" x2="1.38321e+06" y2="1969.72" gradientUnits="userSpaceOnUse">
<stop stop-color="#B82C2C"/>
<stop offset="1" stop-color="#FFDBDB"/>
</linearGradient>
<linearGradient id="paint59_linear_368_1854" x1="1.38316e+06" y1="5233.95" x2="1.38316e+06" y2="1999.09" gradientUnits="userSpaceOnUse">
<stop stop-color="#B82C2C"/>
<stop offset="1" stop-color="#FFDBDB"/>
</linearGradient>
<linearGradient id="paint60_linear_368_1854" x1="1.38317e+06" y1="5338.88" x2="1.38317e+06" y2="2026.44" gradientUnits="userSpaceOnUse">
<stop stop-color="#B82C2C"/>
<stop offset="1" stop-color="#FFDBDB"/>
</linearGradient>
<linearGradient id="paint61_linear_368_1854" x1="1.3832e+06" y1="5441.35" x2="1.3832e+06" y2="2053.23" gradientUnits="userSpaceOnUse">
<stop stop-color="#B82C2C"/>
<stop offset="1" stop-color="#FFDBDB"/>
</linearGradient>
<linearGradient id="paint62_linear_368_1854" x1="1.3832e+06" y1="5535.94" x2="1.3832e+06" y2="2077.99" gradientUnits="userSpaceOnUse">
<stop stop-color="#B82C2C"/>
<stop offset="1" stop-color="#FFDBDB"/>
</linearGradient>
<linearGradient id="paint63_linear_368_1854" x1="1.38321e+06" y1="5622.66" x2="1.38321e+06" y2="2100.74" gradientUnits="userSpaceOnUse">
<stop stop-color="#B82C2C"/>
<stop offset="1" stop-color="#FFDBDB"/>
</linearGradient>
<linearGradient id="paint64_linear_368_1854" x1="1.3832e+06" y1="5705.89" x2="1.3832e+06" y2="2122.65" gradientUnits="userSpaceOnUse">
<stop stop-color="#B82C2C"/>
<stop offset="1" stop-color="#FFDBDB"/>
</linearGradient>
<linearGradient id="paint65_linear_368_1854" x1="1.38321e+06" y1="5768.46" x2="1.38321e+06" y2="2139.11" gradientUnits="userSpaceOnUse">
<stop stop-color="#B82C2C"/>
<stop offset="1" stop-color="#FFDBDB"/>
</linearGradient>
<linearGradient id="paint66_linear_368_1854" x1="1.38321e+06" y1="5822.91" x2="1.38321e+06" y2="2153.49" gradientUnits="userSpaceOnUse">
<stop stop-color="#B82C2C"/>
<stop offset="1" stop-color="#FFDBDB"/>
</linearGradient>
<linearGradient id="paint67_linear_368_1854" x1="1.38317e+06" y1="5856.06" x2="1.38317e+06" y2="2162.25" gradientUnits="userSpaceOnUse">
<stop stop-color="#B82C2C"/>
<stop offset="1" stop-color="#FFDBDB"/>
</linearGradient>
<linearGradient id="paint68_linear_368_1854" x1="1.38325e+06" y1="5828.44" x2="1.38325e+06" y2="2154.71" gradientUnits="userSpaceOnUse">
<stop stop-color="#B82C2C"/>
<stop offset="1" stop-color="#FFDBDB"/>
</linearGradient>
<clipPath id="clip0_368_1854">
<rect width="1920" height="1080" fill="white"/>
</clipPath>
</defs>
</svg>
