<svg width="194" height="30" viewBox="0 0 194 30" fill="none" xmlns="http://www.w3.org/2000/svg">
<path d="M0 15C0 6.71573 6.71573 0 15 0H179C187.284 0 194 6.71573 194 15V15C194 23.2843 187.284 30 179 30H15C6.71572 30 0 23.2843 0 15V15Z" fill="#00F0FF" fill-opacity="0.6"/>
<g filter="url(#filter0_d_368_1192)">
<path d="M26.6016 11.8438C26.2057 11.8646 25.8724 12.0156 25.6016 12.2969C25.3411 12.5781 25.1536 12.901 25.0391 13.2656C24.9245 13.6198 24.8672 13.9844 24.8672 14.3594C24.8672 14.7344 24.9193 15.1042 25.0234 15.4688C25.138 15.8333 25.3307 16.1562 25.6016 16.4375C25.8724 16.7083 26.2057 16.8542 26.6016 16.875H31.7578C32.4141 16.9375 32.7734 17.2969 32.8359 17.9531C32.8255 18.2448 32.7161 18.4896 32.5078 18.6875C32.2995 18.875 32.0495 18.9688 31.7578 18.9688H26.7734H26.0547C25.3255 18.9271 24.7266 18.651 24.2578 18.1406C23.7891 17.6198 23.4505 17.0312 23.2422 16.375C23.0443 15.7188 22.9453 15.0469 22.9453 14.3594C22.9453 13.849 23.0026 13.3438 23.1172 12.8438C23.2318 12.3438 23.4089 11.8698 23.6484 11.4219C23.8984 10.9635 24.2266 10.5729 24.6328 10.25C25.0495 9.92708 25.5234 9.76042 26.0547 9.75H26.3516H31.7578C32.4141 9.8125 32.7734 10.1719 32.8359 10.8281C32.8359 11.1198 32.7266 11.3646 32.5078 11.5625C32.2995 11.75 32.0495 11.8438 31.7578 11.8438H26.6016ZM37.5078 18.9688C36.5911 18.9375 35.8984 18.724 35.4297 18.3281C34.9609 17.9219 34.6224 17.4688 34.4141 16.9688C34.2057 16.4583 34.1016 15.9427 34.1016 15.4219C34.1016 14.8802 34.2005 14.3594 34.3984 13.8594C34.6068 13.349 34.9453 12.8958 35.4141 12.5C35.8932 12.0938 36.4974 11.8854 37.2266 11.875H42.2891C43.0182 11.8854 43.6172 12.0938 44.0859 12.5C44.5651 12.8958 44.9036 13.349 45.1016 13.8594C45.3099 14.3594 45.4141 14.8802 45.4141 15.4219C45.4141 15.9427 45.3099 16.4583 45.1016 16.9688C44.8932 17.4688 44.5547 17.9219 44.0859 18.3281C43.6172 18.724 42.9245 18.9375 42.0078 18.9688H37.5078ZM37.1641 13.9688C36.9661 13.9688 36.7943 14.0521 36.6484 14.2188C36.5026 14.375 36.3932 14.5625 36.3203 14.7812C36.2578 14.9896 36.2266 15.1979 36.2266 15.4062C36.2266 15.625 36.2578 15.8438 36.3203 16.0625C36.3932 16.2708 36.5026 16.4583 36.6484 16.625C36.7943 16.7812 36.9661 16.8646 37.1641 16.875H42.3516C42.5495 16.8646 42.7214 16.7812 42.8672 16.625C43.013 16.4583 43.1172 16.2708 43.1797 16.0625C43.2526 15.8438 43.2891 15.625 43.2891 15.4062C43.2891 15.1979 43.2526 14.9896 43.1797 14.7812C43.1172 14.5625 43.013 14.375 42.8672 14.2188C42.7214 14.0521 42.5495 13.9688 42.3516 13.9688H37.1641ZM52.1953 11.6406C52.737 11.6406 53.2682 11.7031 53.7891 11.8281C54.3203 11.9531 54.8255 12.1406 55.3047 12.3906C55.7839 12.6302 56.2057 12.9531 56.5703 13.3594C56.9453 13.7656 57.1484 14.25 57.1797 14.8125V15.4688V18.1406C57.1172 18.7656 56.7734 19.1042 56.1484 19.1562C55.8568 19.1562 55.6016 19.0625 55.3828 18.875C55.1745 18.6771 55.0703 18.4323 55.0703 18.1406V17.4531V15.2969C55.0495 14.974 54.9245 14.7083 54.6953 14.5C54.4766 14.2812 54.2266 14.1094 53.9453 13.9844C53.6745 13.8594 53.388 13.7656 53.0859 13.7031C52.7943 13.6406 52.4974 13.6094 52.1953 13.6094C51.8932 13.6094 51.5911 13.6406 51.2891 13.7031C50.9974 13.7656 50.7109 13.8594 50.4297 13.9844C50.1589 14.1094 49.9089 14.2812 49.6797 14.5C49.4609 14.7083 49.3411 14.974 49.3203 15.2969V17.4531V18.1406C49.2682 18.7656 48.9297 19.1042 48.3047 19.1562C48.013 19.1562 47.7578 19.0625 47.5391 18.875C47.3307 18.6771 47.2266 18.4323 47.2266 18.1406V15.4688V14.8125C47.2578 14.25 47.4557 13.7656 47.8203 13.3594C48.1849 12.9531 48.6068 12.6302 49.0859 12.3906C49.5651 12.1406 50.0651 11.9531 50.5859 11.8281C51.1172 11.7031 51.6536 11.6406 52.1953 11.6406ZM64.1484 11.6406C64.6901 11.6406 65.2214 11.7031 65.7422 11.8281C66.2734 11.9531 66.7786 12.1406 67.2578 12.3906C67.737 12.6302 68.1589 12.9531 68.5234 13.3594C68.8984 13.7656 69.1016 14.25 69.1328 14.8125V15.4688V18.1406C69.0703 18.7656 68.7266 19.1042 68.1016 19.1562C67.8099 19.1562 67.5547 19.0625 67.3359 18.875C67.1276 18.6771 67.0234 18.4323 67.0234 18.1406V17.4531V15.2969C67.0026 14.974 66.8776 14.7083 66.6484 14.5C66.4297 14.2812 66.1797 14.1094 65.8984 13.9844C65.6276 13.8594 65.3411 13.7656 65.0391 13.7031C64.7474 13.6406 64.4505 13.6094 64.1484 13.6094C63.8464 13.6094 63.5443 13.6406 63.2422 13.7031C62.9505 13.7656 62.6641 13.8594 62.3828 13.9844C62.112 14.1094 61.862 14.2812 61.6328 14.5C61.4141 14.7083 61.2943 14.974 61.2734 15.2969V17.4531V18.1406C61.2214 18.7656 60.8828 19.1042 60.2578 19.1562C59.9661 19.1562 59.7109 19.0625 59.4922 18.875C59.2839 18.6771 59.1797 18.4323 59.1797 18.1406V15.4688V14.8125C59.2109 14.25 59.4089 13.7656 59.7734 13.3594C60.138 12.9531 60.5599 12.6302 61.0391 12.3906C61.5182 12.1406 62.0182 11.9531 62.5391 11.8281C63.0703 11.7031 63.6068 11.6406 64.1484 11.6406ZM74.3203 18.9688C73.4036 18.9375 72.7109 18.724 72.2422 18.3281C71.7734 17.9219 71.4349 17.4688 71.2266 16.9688C71.0182 16.4583 70.9141 15.9427 70.9141 15.4219C70.9141 14.8802 71.013 14.3594 71.2109 13.8594C71.4193 13.349 71.7578 12.8958 72.2266 12.5C72.7057 12.0938 73.3099 11.8854 74.0391 11.875H79.9766C80.2682 11.875 80.513 11.974 80.7109 12.1719C80.9193 12.3594 81.0234 12.5885 81.0234 12.8594C81.0234 13.1406 80.9193 13.3802 80.7109 13.5781C80.513 13.7656 80.2682 13.8594 79.9766 13.8594H74.1328C73.9036 13.8594 73.7005 13.9375 73.5234 14.0938C73.3568 14.25 73.2318 14.4531 73.1484 14.7031C73.0755 14.9531 73.0391 15.1979 73.0391 15.4375C73.0391 15.6979 73.0755 15.9531 73.1484 16.2031C73.2318 16.4531 73.3568 16.6562 73.5234 16.8125C73.7005 16.9583 73.9036 17.0365 74.1328 17.0469H79.9766C80.2682 17.0469 80.513 17.1406 80.7109 17.3281C80.9193 17.5156 81.0234 17.7396 81.0234 18C81.0234 18.2708 80.9193 18.5 80.7109 18.6875C80.513 18.875 80.2682 18.9688 79.9766 18.9688H74.3203ZM80.8359 15.3906C80.8359 15.5885 80.7474 15.7604 80.5703 15.9062C80.4141 16.0417 80.2161 16.1094 79.9766 16.1094H74.8672C74.6276 16.1094 74.4245 16.0417 74.2578 15.9062C74.0911 15.7604 74.0078 15.5885 74.0078 15.3906C74.0078 15.2031 74.0911 15.0365 74.2578 14.8906C74.4245 14.7552 74.6276 14.6875 74.8672 14.6875H79.9766C80.2161 14.6875 80.4193 14.7604 80.5859 14.9062C80.7526 15.0417 80.8359 15.2031 80.8359 15.3906ZM85.9922 18.9688C85.0755 18.9375 84.3828 18.724 83.9141 18.3281C83.4453 17.9219 83.1068 17.4688 82.8984 16.9688C82.6901 16.4583 82.5859 15.9427 82.5859 15.4219C82.5859 14.8802 82.6849 14.3594 82.8828 13.8594C83.0911 13.349 83.4297 12.8958 83.8984 12.5C84.3776 12.0938 84.9818 11.8854 85.7109 11.875H91.6484C91.9401 11.875 92.1849 11.9792 92.3828 12.1875C92.5911 12.3854 92.6953 12.6302 92.6953 12.9219C92.6953 13.2135 92.5911 13.4635 92.3828 13.6719C92.1849 13.8698 91.9401 13.9688 91.6484 13.9688H85.6484C85.4505 13.9688 85.2786 14.0521 85.1328 14.2188C84.987 14.375 84.8776 14.5625 84.8047 14.7812C84.7422 14.9896 84.7109 15.1979 84.7109 15.4062C84.7109 15.625 84.7422 15.8438 84.8047 16.0625C84.8776 16.2708 84.987 16.4583 85.1328 16.625C85.2786 16.7812 85.4505 16.8646 85.6484 16.875H91.6484C91.9401 16.875 92.1849 16.9792 92.3828 17.1875C92.5911 17.3854 92.6953 17.6302 92.6953 17.9219C92.6953 18.2135 92.5911 18.4583 92.3828 18.6562C92.1849 18.8646 91.9401 18.9688 91.6484 18.9688H85.9922ZM97.7266 9.5C98.0182 9.5 98.2682 9.59896 98.4766 9.79688C98.6849 9.98438 98.7943 10.224 98.8047 10.5156V11.875H104.117C104.409 11.875 104.659 11.974 104.867 12.1719C105.065 12.3802 105.164 12.6302 105.164 12.9219C105.164 13.2135 105.06 13.4635 104.852 13.6719C104.654 13.8698 104.409 13.9688 104.117 13.9688H98.8047V14.2812C98.7943 14.7083 98.8203 15.1042 98.8828 15.4688C98.9557 15.8229 99.1224 16.1406 99.3828 16.4219C99.6432 16.7031 99.9714 16.8542 100.367 16.875H104.18C104.471 16.8854 104.711 16.9948 104.898 17.2031C105.096 17.4115 105.195 17.6615 105.195 17.9531C105.185 18.2344 105.081 18.474 104.883 18.6719C104.695 18.8594 104.461 18.9583 104.18 18.9688H99.8359C99.1068 18.9271 98.5026 18.6823 98.0234 18.2344C97.5547 17.776 97.2161 17.2188 97.0078 16.5625C96.8099 15.9062 96.7057 15.2083 96.6953 14.4688V13.9688H94.8984C94.6068 13.9688 94.362 13.8646 94.1641 13.6562C93.9557 13.4583 93.8516 13.2135 93.8516 12.9219C93.8516 12.6302 93.9505 12.3854 94.1484 12.1875C94.3568 11.9792 94.6068 11.875 94.8984 11.875H96.6953V10.5156C96.7057 10.2344 96.8099 10 97.0078 9.8125C97.2057 9.61458 97.4453 9.51042 97.7266 9.5ZM118.008 19.3281C117.654 19.3281 117.299 19.2656 116.945 19.1406C116.602 19.0156 116.268 18.8333 115.945 18.5938C115.622 18.3438 115.341 18.0156 115.102 17.6094C114.862 17.2031 114.732 16.7188 114.711 16.1562V10.5156C114.711 10.224 114.815 9.98438 115.023 9.79688C115.242 9.59896 115.497 9.5 115.789 9.5C116.414 9.55208 116.753 9.89062 116.805 10.5156V16.0312C116.815 16.2812 116.867 16.4948 116.961 16.6719C117.055 16.8385 117.159 16.974 117.273 17.0781C117.388 17.1719 117.503 17.2448 117.617 17.2969C117.742 17.3385 117.867 17.3594 117.992 17.3594C118.117 17.3594 118.242 17.3385 118.367 17.2969C118.492 17.2448 118.612 17.1719 118.727 17.0781C118.841 16.974 118.945 16.8385 119.039 16.6719C119.133 16.4948 119.18 16.2812 119.18 16.0312V10.5156C119.18 10.224 119.284 9.98438 119.492 9.79688C119.711 9.59896 119.966 9.5 120.258 9.5C120.883 9.55208 121.227 9.89062 121.289 10.5156V16.0312C121.299 16.2812 121.352 16.4896 121.445 16.6562C121.539 16.8333 121.643 16.974 121.758 17.0781C121.872 17.1719 121.987 17.2448 122.102 17.2969C122.227 17.3385 122.352 17.3594 122.477 17.3594C122.602 17.3594 122.727 17.3385 122.852 17.2969C122.977 17.2448 123.096 17.1719 123.211 17.0781C123.326 16.974 123.43 16.8385 123.523 16.6719C123.617 16.4948 123.664 16.2812 123.664 16.0312V10.5156C123.664 10.224 123.768 9.98438 123.977 9.79688C124.195 9.59896 124.451 9.5 124.742 9.5C125.367 9.55208 125.711 9.89062 125.773 10.5156V16.1562C125.773 16.7188 125.648 17.2031 125.398 17.6094C125.159 18.0156 124.878 18.3438 124.555 18.5938C124.242 18.8333 123.909 19.0156 123.555 19.1406C123.211 19.2656 122.857 19.3281 122.492 19.3281C122.138 19.3281 121.784 19.2656 121.43 19.1406C121.086 19.0156 120.753 18.8281 120.43 18.5781C120.367 18.5365 120.31 18.4896 120.258 18.4375C120.195 18.4896 120.138 18.5365 120.086 18.5781C119.763 18.8281 119.424 19.0156 119.07 19.1406C118.727 19.2656 118.372 19.3281 118.008 19.3281ZM136.555 18.1406V14.375C136.555 14.1146 136.419 13.9792 136.148 13.9688H130.68C130.482 13.9792 130.31 14.0677 130.164 14.2344C130.018 14.3906 129.909 14.5781 129.836 14.7969C129.773 15.0052 129.742 15.2188 129.742 15.4375C129.742 15.6458 129.773 15.8594 129.836 16.0781C129.909 16.2865 130.018 16.474 130.164 16.6406C130.31 16.7969 130.482 16.875 130.68 16.875H134.68C134.971 16.875 135.216 16.9792 135.414 17.1875C135.622 17.3854 135.727 17.6302 135.727 17.9219C135.727 18.2135 135.622 18.4583 135.414 18.6562C135.216 18.8646 134.971 18.9688 134.68 18.9688H130.742C130.013 18.9583 129.409 18.7552 128.93 18.3594C128.461 17.9531 128.122 17.5 127.914 17C127.716 16.4896 127.617 15.9635 127.617 15.4219C127.617 14.901 127.721 14.3906 127.93 13.8906C128.138 13.3802 128.477 12.9271 128.945 12.5312C129.414 12.125 130.107 11.9062 131.023 11.875H137.586C137.878 11.875 138.128 11.974 138.336 12.1719C138.544 12.3594 138.654 12.599 138.664 12.8906V18.1406C138.664 18.4323 138.555 18.6771 138.336 18.875C138.128 19.0625 137.878 19.1562 137.586 19.1562C136.961 19.1042 136.617 18.7656 136.555 18.1406ZM141.758 9.5C142.039 9.51042 142.279 9.61458 142.477 9.8125C142.674 10 142.779 10.2344 142.789 10.5156V18.1719C142.727 18.7969 142.383 19.1354 141.758 19.1875C141.466 19.1875 141.211 19.0938 140.992 18.9062C140.784 18.7083 140.68 18.4635 140.68 18.1719V10.5156C140.69 10.224 140.799 9.98438 141.008 9.79688C141.216 9.59896 141.466 9.5 141.758 9.5ZM145.852 9.5C146.133 9.51042 146.372 9.61458 146.57 9.8125C146.768 10 146.872 10.2344 146.883 10.5156V18.1719C146.82 18.7969 146.477 19.1354 145.852 19.1875C145.56 19.1875 145.305 19.0938 145.086 18.9062C144.878 18.7083 144.773 18.4635 144.773 18.1719V10.5156C144.784 10.224 144.893 9.98438 145.102 9.79688C145.31 9.59896 145.56 9.5 145.852 9.5ZM152.07 18.9688C151.154 18.9375 150.461 18.724 149.992 18.3281C149.523 17.9219 149.185 17.4688 148.977 16.9688C148.768 16.4583 148.664 15.9427 148.664 15.4219C148.664 14.8802 148.763 14.3594 148.961 13.8594C149.169 13.349 149.508 12.8958 149.977 12.5C150.456 12.0938 151.06 11.8854 151.789 11.875H157.727C158.018 11.875 158.263 11.974 158.461 12.1719C158.669 12.3594 158.773 12.5885 158.773 12.8594C158.773 13.1406 158.669 13.3802 158.461 13.5781C158.263 13.7656 158.018 13.8594 157.727 13.8594H151.883C151.654 13.8594 151.451 13.9375 151.273 14.0938C151.107 14.25 150.982 14.4531 150.898 14.7031C150.826 14.9531 150.789 15.1979 150.789 15.4375C150.789 15.6979 150.826 15.9531 150.898 16.2031C150.982 16.4531 151.107 16.6562 151.273 16.8125C151.451 16.9583 151.654 17.0365 151.883 17.0469H157.727C158.018 17.0469 158.263 17.1406 158.461 17.3281C158.669 17.5156 158.773 17.7396 158.773 18C158.773 18.2708 158.669 18.5 158.461 18.6875C158.263 18.875 158.018 18.9688 157.727 18.9688H152.07ZM158.586 15.3906C158.586 15.5885 158.497 15.7604 158.32 15.9062C158.164 16.0417 157.966 16.1094 157.727 16.1094H152.617C152.378 16.1094 152.174 16.0417 152.008 15.9062C151.841 15.7604 151.758 15.5885 151.758 15.3906C151.758 15.2031 151.841 15.0365 152.008 14.8906C152.174 14.7552 152.378 14.6875 152.617 14.6875H157.727C157.966 14.6875 158.169 14.7604 158.336 14.9062C158.503 15.0417 158.586 15.2031 158.586 15.3906ZM163.961 9.5C164.253 9.5 164.503 9.59896 164.711 9.79688C164.919 9.98438 165.029 10.224 165.039 10.5156V11.875H170.352C170.643 11.875 170.893 11.974 171.102 12.1719C171.299 12.3802 171.398 12.6302 171.398 12.9219C171.398 13.2135 171.294 13.4635 171.086 13.6719C170.888 13.8698 170.643 13.9688 170.352 13.9688H165.039V14.2812C165.029 14.7083 165.055 15.1042 165.117 15.4688C165.19 15.8229 165.357 16.1406 165.617 16.4219C165.878 16.7031 166.206 16.8542 166.602 16.875H170.414C170.706 16.8854 170.945 16.9948 171.133 17.2031C171.331 17.4115 171.43 17.6615 171.43 17.9531C171.419 18.2344 171.315 18.474 171.117 18.6719C170.93 18.8594 170.695 18.9583 170.414 18.9688H166.07C165.341 18.9271 164.737 18.6823 164.258 18.2344C163.789 17.776 163.451 17.2188 163.242 16.5625C163.044 15.9062 162.94 15.2083 162.93 14.4688V13.9688H161.133C160.841 13.9688 160.596 13.8646 160.398 13.6562C160.19 13.4583 160.086 13.2135 160.086 12.9219C160.086 12.6302 160.185 12.3854 160.383 12.1875C160.591 11.9792 160.841 11.875 161.133 11.875H162.93V10.5156C162.94 10.2344 163.044 10 163.242 9.8125C163.44 9.61458 163.68 9.51042 163.961 9.5Z" fill="white"/>
</g>
<defs>
<filter id="filter0_d_368_1192" x="18.9453" y="9.5" width="156.484" height="17.8281" filterUnits="userSpaceOnUse" color-interpolation-filters="sRGB">
<feFlood flood-opacity="0" result="BackgroundImageFix"/>
<feColorMatrix in="SourceAlpha" type="matrix" values="0 0 0 0 0 0 0 0 0 0 0 0 0 0 0 0 0 0 127 0" result="hardAlpha"/>
<feOffset dy="4"/>
<feGaussianBlur stdDeviation="2"/>
<feComposite in2="hardAlpha" operator="out"/>
<feColorMatrix type="matrix" values="0 0 0 0 0 0 0 0 0 0 0 0 0 0 0 0 0 0 0.25 0"/>
<feBlend mode="normal" in2="BackgroundImageFix" result="effect1_dropShadow_368_1192"/>
<feBlend mode="normal" in="SourceGraphic" in2="effect1_dropShadow_368_1192" result="shape"/>
</filter>
</defs>
</svg>
