<svg width="219" height="49" viewBox="0 0 219 49" fill="none" xmlns="http://www.w3.org/2000/svg">
<g filter="url(#filter0_di_424_754)">
<path d="M51.125 27.4805C51.125 26.8242 51.3477 26.2734 51.793 25.8281C52.2617 25.3594 52.8242 25.125 53.4805 25.125H58.8594L57.9453 22.5234C57.5703 21.5625 57.1953 20.6602 56.8203 19.8164C56.4688 18.9492 56.0586 18.1641 55.5898 17.4609C55.168 16.7578 54.6875 16.3828 54.1484 16.3359C53.5859 16.3828 53.082 16.7578 52.6367 17.4609C52.1914 18.1641 51.7812 18.9492 51.4062 19.8164C51.0547 20.6602 50.6914 21.5625 50.3164 22.5234L46.9766 31.6641C46.7422 32.1562 46.4375 32.5664 46.0625 32.8945C45.7109 33.1992 45.1719 33.3516 44.4453 33.3516C43.7656 33.3516 43.2031 33.1172 42.7578 32.6484C42.3359 32.1797 42.1484 31.6172 42.1953 30.9609C42.2188 30.6562 42.2891 30.375 42.4062 30.1172L46.2734 20.1328C47.3516 17.5078 48.4297 15.3867 49.5078 13.7695C50.5625 12.1758 52.1094 11.3672 54.1484 11.3438C56.1641 11.3672 57.6992 12.1758 58.7539 13.7695C59.832 15.3398 60.9102 17.4609 61.9883 20.1328L65.8555 30.1172C65.9727 30.375 66.043 30.6562 66.0664 30.9609C66.1133 31.6172 65.9141 32.1797 65.4688 32.6484C65.0469 33.1172 64.4961 33.3516 63.8164 33.3516C63.043 33.3516 62.4688 33.1992 62.0938 32.8945C61.7422 32.5664 61.4492 32.1562 61.2148 31.6641L60.5469 29.8359H53.4805C52.8242 29.8359 52.2734 29.6016 51.8281 29.1328C51.3594 28.6875 51.125 28.1367 51.125 27.4805ZM70.1021 21.3984C70.5474 20.2734 71.2974 19.2656 72.3521 18.375C73.4303 17.4609 74.7896 16.9922 76.4303 16.9688H89.649C90.3053 16.9688 90.856 17.2031 91.3013 17.6719C91.7701 18.1172 92.0045 18.668 92.0045 19.3242C92.0045 19.9805 91.7701 20.543 91.3013 21.0117C90.856 21.457 90.3053 21.6797 89.649 21.6797H76.2896C75.8443 21.6797 75.4576 21.8672 75.1295 22.2422C74.8013 22.5938 74.5435 23.0156 74.356 23.5078C74.192 24 74.1099 24.4688 74.1099 24.9141V31.0664C73.9693 32.4727 73.1959 33.2344 71.7896 33.3516C71.1334 33.3516 70.5592 33.1406 70.067 32.7188C69.5982 32.2734 69.3638 31.7227 69.3638 31.0664V24.9492H69.399C69.399 23.7305 69.6334 22.5469 70.1021 21.3984ZM102.403 32.9297C100.341 32.8594 98.7824 32.3789 97.7277 31.4883C96.673 30.5742 95.9113 29.5547 95.4425 28.4297C94.9738 27.2812 94.7394 26.1211 94.7394 24.9492C94.7394 23.7305 94.9621 22.5586 95.4074 21.4336C95.8761 20.2852 96.6379 19.2656 97.6925 18.375C98.7707 17.4609 100.13 16.9922 101.771 16.9688H115.13C115.786 16.9688 116.337 17.2031 116.782 17.6719C117.251 18.1172 117.486 18.668 117.486 19.3242C117.486 19.9805 117.251 20.543 116.782 21.0117C116.337 21.457 115.786 21.6797 115.13 21.6797H101.63C101.185 21.6797 100.798 21.8672 100.47 22.2422C100.142 22.5938 99.8957 23.0156 99.7316 23.5078C99.591 23.9766 99.5207 24.4453 99.5207 24.9141C99.5207 25.4062 99.591 25.8984 99.7316 26.3906C99.8957 26.8594 100.142 27.2812 100.47 27.6562C100.798 28.0078 101.185 28.1953 101.63 28.2188H115.13C115.786 28.2188 116.337 28.4531 116.782 28.9219C117.251 29.3672 117.486 29.918 117.486 30.5742C117.486 31.2305 117.251 31.7812 116.782 32.2266C116.337 32.6953 115.786 32.9297 115.13 32.9297H102.403ZM140.611 31.0664V22.5938C140.611 22.0078 140.306 21.7031 139.697 21.6797H127.392C126.947 21.7031 126.56 21.9023 126.232 22.2773C125.904 22.6289 125.658 23.0508 125.494 23.543C125.353 24.0117 125.283 24.4922 125.283 24.9844C125.283 25.4531 125.353 25.9336 125.494 26.4258C125.658 26.8945 125.904 27.3164 126.232 27.6914C126.56 28.043 126.947 28.2188 127.392 28.2188H136.392C137.049 28.2188 137.599 28.4531 138.045 28.9219C138.513 29.3672 138.748 29.918 138.748 30.5742C138.748 31.2305 138.513 31.7812 138.045 32.2266C137.599 32.6953 137.049 32.9297 136.392 32.9297H127.533C125.892 32.9062 124.533 32.4492 123.455 31.5586C122.4 30.6445 121.638 29.625 121.17 28.5C120.724 27.3516 120.502 26.168 120.502 24.9492C120.502 23.7773 120.736 22.6289 121.205 21.5039C121.674 20.3555 122.435 19.3359 123.49 18.4453C124.545 17.5312 126.103 17.0391 128.166 16.9688H142.931C143.588 16.9688 144.15 17.1914 144.619 17.6367C145.088 18.0586 145.334 18.5977 145.357 19.2539V31.0664C145.357 31.7227 145.111 32.2734 144.619 32.7188C144.15 33.1406 143.588 33.3516 142.931 33.3516C141.525 33.2344 140.752 32.4727 140.611 31.0664ZM169.256 13.9102C169.397 12.5039 170.17 11.7422 171.576 11.625C172.233 11.625 172.795 11.8477 173.264 12.293C173.756 12.7148 174.002 13.2539 174.002 13.9102V30.6445C173.979 31.3008 173.733 31.8516 173.264 32.2969C172.795 32.7188 172.233 32.9297 171.576 32.9297H156.811C154.748 32.8594 153.19 32.3789 152.135 31.4883C151.08 30.5742 150.319 29.5547 149.85 28.4297C149.381 27.2812 149.147 26.1211 149.147 24.9492C149.147 23.7305 149.369 22.5586 149.815 21.4336C150.284 20.2852 151.045 19.2656 152.1 18.375C153.178 17.4609 154.537 16.9922 156.178 16.9688H165.037C165.694 16.9688 166.244 17.2031 166.69 17.6719C167.159 18.1172 167.393 18.668 167.393 19.3242C167.393 19.9805 167.159 20.543 166.69 21.0117C166.244 21.457 165.694 21.6797 165.037 21.6797H156.037C155.592 21.6797 155.205 21.8672 154.877 22.2422C154.549 22.5938 154.303 23.0156 154.139 23.5078C153.998 23.9766 153.928 24.4453 153.928 24.9141C153.928 25.4062 153.998 25.8984 154.139 26.3906C154.303 26.8594 154.549 27.2812 154.877 27.6562C155.205 28.0078 155.592 28.1953 156.037 28.2188H168.342C168.951 28.1953 169.256 27.8906 169.256 27.3047V13.9102ZM180.85 16.6172C181.483 16.6406 182.022 16.875 182.468 17.3203C182.913 17.7422 183.147 18.2695 183.171 18.9023V31.0664C183.03 32.4727 182.257 33.2344 180.85 33.3516C180.194 33.3516 179.62 33.1406 179.128 32.7188C178.659 32.2734 178.425 31.7227 178.425 31.0664V18.9023C178.448 18.2461 178.694 17.707 179.163 17.2852C179.632 16.8398 180.194 16.6172 180.85 16.6172ZM177.897 12.0469C177.897 11.3906 178.179 10.8281 178.741 10.3594C179.304 9.89062 179.983 9.65625 180.78 9.65625C181.577 9.65625 182.257 9.89062 182.819 10.3594C183.382 10.8281 183.663 11.3906 183.663 12.0469C183.663 12.7266 183.382 13.3008 182.819 13.7695C182.257 14.2383 181.577 14.4727 180.78 14.4727C179.983 14.4727 179.304 14.2383 178.741 13.7695C178.179 13.3008 177.897 12.7266 177.897 12.0469ZM194.519 32.9297C192.457 32.8594 190.898 32.3789 189.843 31.4883C188.789 30.5742 188.027 29.5547 187.558 28.4297C187.089 27.2812 186.855 26.1211 186.855 24.9492C186.855 23.7305 187.078 22.5586 187.523 21.4336C187.992 20.2852 188.753 19.2656 189.808 18.375C190.886 17.4609 192.246 16.9922 193.886 16.9688H205.277C206.917 16.9922 208.265 17.4609 209.32 18.375C210.398 19.2656 211.16 20.2852 211.605 21.4336C212.074 22.5586 212.308 23.7305 212.308 24.9492C212.308 26.1211 212.074 27.2812 211.605 28.4297C211.136 29.5547 210.374 30.5742 209.32 31.4883C208.265 32.3789 206.707 32.8594 204.644 32.9297H194.519ZM193.746 21.6797C193.3 21.6797 192.914 21.8672 192.585 22.2422C192.257 22.5938 192.011 23.0156 191.847 23.5078C191.707 23.9766 191.636 24.4453 191.636 24.9141C191.636 25.4062 191.707 25.8984 191.847 26.3906C192.011 26.8594 192.257 27.2812 192.585 27.6562C192.914 28.0078 193.3 28.1953 193.746 28.2188H205.417C205.863 28.1953 206.249 28.0078 206.578 27.6562C206.906 27.2812 207.14 26.8594 207.281 26.3906C207.445 25.8984 207.527 25.4062 207.527 24.9141C207.527 24.4453 207.445 23.9766 207.281 23.5078C207.14 23.0156 206.906 22.5938 206.578 22.2422C206.249 21.8672 205.863 21.6797 205.417 21.6797H193.746Z" fill="white"/>
</g>
<g filter="url(#filter1_di_424_754)">
<path d="M21.75 10.0709L39.0705 33.0397H4.42949L21.75 10.0709Z" fill="#F26060"/>
</g>
<g filter="url(#filter2_d_424_754)">
<g filter="url(#filter3_i_424_754)">
<ellipse cx="21.7609" cy="16.6535" rx="2.74599" ry="2.38636" fill="white"/>
</g>
<g filter="url(#filter4_i_424_754)">
<path d="M29.75 32.6421C29.75 32.6421 25.8205 32.6421 21.4022 32.6421C16.9839 32.6421 13.75 32.6421 13.75 32.6421C13.75 31.333 17.3317 30.2717 21.75 30.2717C26.1683 30.2717 29.75 31.333 29.75 32.6421Z" fill="white"/>
<rect x="20.377" y="24.2899" width="2.78261" height="6.14091" fill="white"/>
<rect x="26.6379" y="29.8262" width="1.72082" height="2.19546" rx="0.860412" fill="white"/>
</g>
<g filter="url(#filter5_i_424_754)">
<path fill-rule="evenodd" clip-rule="evenodd" d="M20.377 19.3899V23.6957H23.1596V19.3899C22.7516 19.5987 22.276 19.7184 21.7683 19.7184C21.2605 19.7184 20.785 19.5986 20.377 19.3899Z" fill="white"/>
</g>
</g>
<defs>
<filter id="filter0_di_424_754" x="38.125" y="9.65625" width="178.183" height="31.6953" filterUnits="userSpaceOnUse" color-interpolation-filters="sRGB">
<feFlood flood-opacity="0" result="BackgroundImageFix"/>
<feColorMatrix in="SourceAlpha" type="matrix" values="0 0 0 0 0 0 0 0 0 0 0 0 0 0 0 0 0 0 127 0" result="hardAlpha"/>
<feOffset dy="4"/>
<feGaussianBlur stdDeviation="2"/>
<feComposite in2="hardAlpha" operator="out"/>
<feColorMatrix type="matrix" values="0 0 0 0 0 0 0 0 0 0 0 0 0 0 0 0 0 0 0.25 0"/>
<feBlend mode="normal" in2="BackgroundImageFix" result="effect1_dropShadow_424_754"/>
<feBlend mode="normal" in="SourceGraphic" in2="effect1_dropShadow_424_754" result="shape"/>
<feColorMatrix in="SourceAlpha" type="matrix" values="0 0 0 0 0 0 0 0 0 0 0 0 0 0 0 0 0 0 127 0" result="hardAlpha"/>
<feOffset dy="4"/>
<feGaussianBlur stdDeviation="2"/>
<feComposite in2="hardAlpha" operator="arithmetic" k2="-1" k3="1"/>
<feColorMatrix type="matrix" values="0 0 0 0 0 0 0 0 0 0 0 0 0 0 0 0 0 0 0.25 0"/>
<feBlend mode="normal" in2="shape" result="effect2_innerShadow_424_754"/>
</filter>
<filter id="filter1_di_424_754" x="0.429443" y="10.0709" width="42.6411" height="30.9688" filterUnits="userSpaceOnUse" color-interpolation-filters="sRGB">
<feFlood flood-opacity="0" result="BackgroundImageFix"/>
<feColorMatrix in="SourceAlpha" type="matrix" values="0 0 0 0 0 0 0 0 0 0 0 0 0 0 0 0 0 0 127 0" result="hardAlpha"/>
<feOffset dy="4"/>
<feGaussianBlur stdDeviation="2"/>
<feComposite in2="hardAlpha" operator="out"/>
<feColorMatrix type="matrix" values="0 0 0 0 0 0 0 0 0 0 0 0 0 0 0 0 0 0 0.25 0"/>
<feBlend mode="normal" in2="BackgroundImageFix" result="effect1_dropShadow_424_754"/>
<feBlend mode="normal" in="SourceGraphic" in2="effect1_dropShadow_424_754" result="shape"/>
<feColorMatrix in="SourceAlpha" type="matrix" values="0 0 0 0 0 0 0 0 0 0 0 0 0 0 0 0 0 0 127 0" result="hardAlpha"/>
<feOffset dy="4"/>
<feGaussianBlur stdDeviation="2"/>
<feComposite in2="hardAlpha" operator="arithmetic" k2="-1" k3="1"/>
<feColorMatrix type="matrix" values="0 0 0 0 0 0 0 0 0 0 0 0 0 0 0 0 0 0 0.25 0"/>
<feBlend mode="normal" in2="shape" result="effect2_innerShadow_424_754"/>
</filter>
<filter id="filter2_d_424_754" x="9.75" y="14.2671" width="24" height="26.375" filterUnits="userSpaceOnUse" color-interpolation-filters="sRGB">
<feFlood flood-opacity="0" result="BackgroundImageFix"/>
<feColorMatrix in="SourceAlpha" type="matrix" values="0 0 0 0 0 0 0 0 0 0 0 0 0 0 0 0 0 0 127 0" result="hardAlpha"/>
<feOffset dy="4"/>
<feGaussianBlur stdDeviation="2"/>
<feComposite in2="hardAlpha" operator="out"/>
<feColorMatrix type="matrix" values="0 0 0 0 0 0 0 0 0 0 0 0 0 0 0 0 0 0 0.25 0"/>
<feBlend mode="normal" in2="BackgroundImageFix" result="effect1_dropShadow_424_754"/>
<feBlend mode="normal" in="SourceGraphic" in2="effect1_dropShadow_424_754" result="shape"/>
</filter>
<filter id="filter3_i_424_754" x="18.0149" y="12.2671" width="6.49194" height="6.77273" filterUnits="userSpaceOnUse" color-interpolation-filters="sRGB">
<feFlood flood-opacity="0" result="BackgroundImageFix"/>
<feBlend mode="normal" in="SourceGraphic" in2="BackgroundImageFix" result="shape"/>
<feColorMatrix in="SourceAlpha" type="matrix" values="0 0 0 0 0 0 0 0 0 0 0 0 0 0 0 0 0 0 127 0" result="hardAlpha"/>
<feOffset dx="-1" dy="-2"/>
<feGaussianBlur stdDeviation="2"/>
<feComposite in2="hardAlpha" operator="arithmetic" k2="-1" k3="1"/>
<feColorMatrix type="matrix" values="0 0 0 0 0 0 0 0 0 0 0 0 0 0 0 0 0 0 0.25 0"/>
<feBlend mode="normal" in2="shape" result="effect1_innerShadow_424_754"/>
</filter>
<filter id="filter4_i_424_754" x="12.75" y="22.0989" width="17" height="10.5432" filterUnits="userSpaceOnUse" color-interpolation-filters="sRGB">
<feFlood flood-opacity="0" result="BackgroundImageFix"/>
<feBlend mode="normal" in="SourceGraphic" in2="BackgroundImageFix" result="shape"/>
<feColorMatrix in="SourceAlpha" type="matrix" values="0 0 0 0 0 0 0 0 0 0 0 0 0 0 0 0 0 0 127 0" result="hardAlpha"/>
<feOffset dx="-1" dy="-2"/>
<feGaussianBlur stdDeviation="2"/>
<feComposite in2="hardAlpha" operator="arithmetic" k2="-1" k3="1"/>
<feColorMatrix type="matrix" values="0 0 0 0 0 0 0 0 0 0 0 0 0 0 0 0 0 0 0.25 0"/>
<feBlend mode="normal" in2="shape" result="effect1_innerShadow_424_754"/>
</filter>
<filter id="filter5_i_424_754" x="19.377" y="17.3899" width="3.78271" height="6.30581" filterUnits="userSpaceOnUse" color-interpolation-filters="sRGB">
<feFlood flood-opacity="0" result="BackgroundImageFix"/>
<feBlend mode="normal" in="SourceGraphic" in2="BackgroundImageFix" result="shape"/>
<feColorMatrix in="SourceAlpha" type="matrix" values="0 0 0 0 0 0 0 0 0 0 0 0 0 0 0 0 0 0 127 0" result="hardAlpha"/>
<feOffset dx="-1" dy="-2"/>
<feGaussianBlur stdDeviation="2"/>
<feComposite in2="hardAlpha" operator="arithmetic" k2="-1" k3="1"/>
<feColorMatrix type="matrix" values="0 0 0 0 0 0 0 0 0 0 0 0 0 0 0 0 0 0 0.25 0"/>
<feBlend mode="normal" in2="shape" result="effect1_innerShadow_424_754"/>
</filter>
</defs>
</svg>
