<svg width="331" height="189" viewBox="0 0 331 189" fill="none" xmlns="http://www.w3.org/2000/svg">
    <path d="M178.709 144.324c0 .433.042.866.126 1.298 1.175 5.443 9.988 9.71 20.774 9.71 11.583 0 21.026-4.947 21.068-11.008 0-1.361-.462-2.66-1.343-3.897-2.98-4.205-10.618-7.112-19.557-7.112-11.583 0-20.984 4.948-21.068 11.009z" fill="url(#6wjj3hd83a)"/>
    <path d="M.476 159.549c0 .659 0 1.318.128 1.976 1.532 8.282 14.816 14.87 31.228 14.87 17.69 0 32.25-7.623 32.506-16.846.064-2.07-.639-4.047-1.916-6.023-4.342-6.305-15.838-10.823-29.44-10.823-17.626 0-32.123 7.529-32.506 16.846z" fill="url(#a9a8is3jjb)"/>
    <path d="M49.854 152.576c-.08 2.54-5.76 4.807-13.379 5.352-1.313.09-2.68.179-4.094.179-1.888 0-3.719-.089-5.391-.271-6.262-.725-10.863-2.451-11.568-4.628a1.484 1.484 0 0 1-.081-.632c.09-2.445 5.142-4.619 12.025-5.344a51.533 51.533 0 0 1 5.398-.269c1.412 0 2.77.09 4.076.179 5.532.454 9.991 1.721 11.925 3.442.713.632 1.11 1.265 1.089 1.992z" fill="#00457F"/>
    <path d="M278.917 177.214c.028 6.129-9.417 11.136-21.092 11.136-10.824 0-19.731-4.331-20.948-9.83a5.643 5.643 0 0 1-.146-1.306c.015-6.161 9.438-11.141 21.072-11.141 9.01 0 16.698 2.958 19.722 7.184.893 1.259 1.387 2.562 1.392 3.957z" fill="#FF9E00"/>
    <path d="M330.476 144.318c.077 6.063-9.279 11.025-20.892 11.025-10.77 0-19.664-4.291-20.92-9.73a5.48 5.48 0 0 1-.157-1.295c-.035-6.096 9.299-11.025 20.873-11.025 8.964 0 16.637 2.932 19.677 7.109.901 1.248 1.402 2.537 1.419 3.916z" fill="#08F"/>
    <path d="M237.098 108.871c0 .433.084.866.168 1.299 1.343 5.443 10.325 9.711 21.112 9.711 11.584 0 20.86-4.948 20.692-11.01-.042-1.36-.588-2.659-1.511-3.896-3.106-4.206-10.829-7.113-19.769-7.113-11.584 0-20.818 4.948-20.692 11.009z" fill="url(#ycw845oa4c)"/>
    <path d="M31.615 26.447 26.98 157.835c1.67.184 3.508.287 5.388.287 1.42 0 2.784-.103 4.093-.185l4.441-131.49h-9.286z" fill="url(#ms6daskyrd)"/>
    <path d="M54.964 28.306c0 15.124-8.32 27.385-18.583 27.385-10.264 0-18.583-12.26-18.583-27.385 0-15.124 8.32-27.384 18.583-27.384 10.263 0 18.583 12.26 18.583 27.384z" fill="url(#5w1y2cid7e)"/>
    <defs>
        <linearGradient id="6wjj3hd83a" x1="178.709" y1="144.324" x2="220.677" y2="144.324" gradientUnits="userSpaceOnUse">
            <stop stop-color="#FF006F"/>
            <stop offset="1" stop-color="#C5006F"/>
        </linearGradient>
        <linearGradient id="a9a8is3jjb" x1=".476" y1="159.547" x2="64.338" y2="159.547" gradientUnits="userSpaceOnUse">
            <stop stop-color="#FF006F"/>
            <stop offset="1" stop-color="#C5006F"/>
        </linearGradient>
        <linearGradient id="ycw845oa4c" x1="237.098" y1="108.872" x2="279.07" y2="108.872" gradientUnits="userSpaceOnUse">
            <stop stop-color="#00FF38"/>
            <stop offset="1" stop-color="#004FC5"/>
        </linearGradient>
        <linearGradient id="ms6daskyrd" x1="26.979" y1="92.285" x2="40.901" y2="92.285" gradientUnits="userSpaceOnUse">
            <stop stop-color="#D8E9F0"/>
            <stop offset="1" stop-color="#6A8EA0"/>
        </linearGradient>
        <radialGradient id="5w1y2cid7e" cx="0" cy="0" r="1" gradientUnits="userSpaceOnUse" gradientTransform="matrix(18.583 0 0 27.3846 29.336 20.039)">
            <stop stop-color="#FF006F"/>
            <stop offset="1" stop-color="#C5006F"/>
        </radialGradient>
    </defs>
</svg>
