<svg width="30" height="31" viewBox="0 0 30 31" fill="none" xmlns="http://www.w3.org/2000/svg">
<circle cx="15" cy="15" r="15" fill="#00F0FF" fill-opacity="0.6"/>
<g filter="url(#filter0_d_360_655)">
<path d="M21.6425 8.83576C20.3518 8.26947 18.9678 7.85225 17.5207 7.61329C17.4943 7.60868 17.468 7.62021 17.4544 7.64326C17.2764 7.94599 17.0792 8.34092 16.9412 8.65134C15.3847 8.42852 13.8362 8.42852 12.3117 8.65134C12.1736 8.33402 11.9693 7.94599 11.7905 7.64326C11.7769 7.62097 11.7506 7.60945 11.7242 7.61329C10.2779 7.85149 8.89388 8.2687 7.60241 8.83576C7.59123 8.84037 7.58165 8.84806 7.57529 8.85804C4.95005 12.6084 4.23089 16.2666 4.58368 19.8795C4.58528 19.8971 4.59566 19.9141 4.61002 19.9248C6.34208 21.1411 8.01988 21.8795 9.66652 22.369C9.69287 22.3766 9.72079 22.3674 9.73756 22.3467C10.1271 21.838 10.4743 21.3017 10.772 20.7377C10.7896 20.7047 10.7728 20.6655 10.7369 20.6524C10.1861 20.4527 9.66173 20.2091 9.15727 19.9325C9.11737 19.9102 9.11418 19.8556 9.15088 19.8295C9.25704 19.7534 9.36322 19.6743 9.46459 19.5944C9.48293 19.5798 9.50848 19.5767 9.53004 19.5859C12.8441 21.0328 16.4319 21.0328 19.7069 19.5859C19.7284 19.576 19.754 19.579 19.7731 19.5936C19.8745 19.6735 19.9807 19.7534 20.0876 19.8295C20.1243 19.8556 20.1219 19.9102 20.082 19.9325C19.5776 20.2145 19.0532 20.4527 18.5016 20.6517C18.4657 20.6647 18.4497 20.7047 18.4673 20.7377C18.7714 21.3009 19.1186 21.8372 19.5009 22.3459C19.5169 22.3674 19.5456 22.3766 19.572 22.369C21.2266 21.8795 22.9044 21.1411 24.6365 19.9248C24.6516 19.9141 24.6612 19.8979 24.6628 19.8802C25.085 15.7034 23.9556 12.0752 21.6688 8.8588C21.6632 8.84806 21.6537 8.84037 21.6425 8.83576ZM11.2669 17.6796C10.2691 17.6796 9.44702 16.8037 9.44702 15.728C9.44702 14.6523 10.2532 13.7764 11.2669 13.7764C12.2885 13.7764 13.1027 14.66 13.0867 15.728C13.0867 16.8037 12.2806 17.6796 11.2669 17.6796ZM17.9956 17.6796C16.9978 17.6796 16.1757 16.8037 16.1757 15.728C16.1757 14.6523 16.9819 13.7764 17.9956 13.7764C19.0173 13.7764 19.8314 14.66 19.8154 15.728C19.8154 16.8037 19.0173 17.6796 17.9956 17.6796Z" fill="white"/>
</g>
<defs>
<filter id="filter0_d_360_655" x="0.5" y="7.61229" width="28.25" height="22.7594" filterUnits="userSpaceOnUse" color-interpolation-filters="sRGB">
<feFlood flood-opacity="0" result="BackgroundImageFix"/>
<feColorMatrix in="SourceAlpha" type="matrix" values="0 0 0 0 0 0 0 0 0 0 0 0 0 0 0 0 0 0 127 0" result="hardAlpha"/>
<feOffset dy="4"/>
<feGaussianBlur stdDeviation="2"/>
<feComposite in2="hardAlpha" operator="out"/>
<feColorMatrix type="matrix" values="0 0 0 0 0 0 0 0 0 0 0 0 0 0 0 0 0 0 0.25 0"/>
<feBlend mode="normal" in2="BackgroundImageFix" result="effect1_dropShadow_360_655"/>
<feBlend mode="normal" in="SourceGraphic" in2="effect1_dropShadow_360_655" result="shape"/>
</filter>
</defs>
</svg>
