<svg width="30" height="30" viewBox="0 0 30 30" fill="none" xmlns="http://www.w3.org/2000/svg">
<path d="M0 15C0 23.2843 6.71573 30 15 30C23.2843 30 30 23.2843 30 15C30 6.71573 23.2843 0 15 0C6.71573 0 0 6.71573 0 15Z" fill="#00F0FF" fill-opacity="0.6"/>
<g filter="url(#filter0_d_360_656)">
<path d="M22.5 10.3125C21.9375 10.5937 21.375 10.6875 20.7188 10.7812C21.375 10.4062 21.8438 9.84374 22.0312 9.09374C21.4688 9.46874 20.8125 9.65624 20.0625 9.84374C19.5 9.28124 18.6562 8.90624 17.8125 8.90624C15.8438 8.90624 14.3438 10.7812 14.8125 12.6562C12.2812 12.5625 10.0312 11.3437 8.4375 9.46874C7.59375 10.875 8.0625 12.6562 9.375 13.5937C8.90625 13.5937 8.4375 13.4062 7.96875 13.2187C7.96875 14.625 9 15.9375 10.4063 16.3125C9.9375 16.4062 9.46875 16.5 9 16.4062C9.375 17.625 10.5 18.5625 11.9062 18.5625C10.7812 19.4062 9.09375 19.875 7.5 19.6875C8.90625 20.5312 10.5 21.0937 12.1875 21.0937C17.9062 21.0937 21.0937 16.3125 20.9062 11.9062C21.5625 11.5312 22.125 10.9687 22.5 10.3125Z" fill="white"/>
</g>
<defs>
<filter id="filter0_d_360_656" x="3.5" y="8.90624" width="23" height="20.1875" filterUnits="userSpaceOnUse" color-interpolation-filters="sRGB">
<feFlood flood-opacity="0" result="BackgroundImageFix"/>
<feColorMatrix in="SourceAlpha" type="matrix" values="0 0 0 0 0 0 0 0 0 0 0 0 0 0 0 0 0 0 127 0" result="hardAlpha"/>
<feOffset dy="4"/>
<feGaussianBlur stdDeviation="2"/>
<feComposite in2="hardAlpha" operator="out"/>
<feColorMatrix type="matrix" values="0 0 0 0 0 0 0 0 0 0 0 0 0 0 0 0 0 0 0.25 0"/>
<feBlend mode="normal" in2="BackgroundImageFix" result="effect1_dropShadow_360_656"/>
<feBlend mode="normal" in="SourceGraphic" in2="effect1_dropShadow_360_656" result="shape"/>
</filter>
</defs>
</svg>
