<svg width="320" height="400" viewBox="0 0 320 400" fill="none" xmlns="http://www.w3.org/2000/svg">
<circle cx="165" cy="100" r="100" fill="url(#paint0_linear_53_2)"/>
<circle cx="165" cy="300" r="100" transform="rotate(-180 165 300)" fill="url(#paint1_linear_53_2)"/>
<g filter="url(#filter0_b_53_2)">
<path d="M0 197C0 180.431 13.4315 167 30 167H290C306.569 167 320 180.431 320 197V203C320 219.569 306.569 233 290 233H30C13.4315 233 0 219.569 0 203V197Z" fill="white" fill-opacity="0.8"/>
</g>
<g filter="url(#filter1_b_53_2)">
<path d="M47.7266 213.516V219H23.5391V213.516H47.7266ZM47.375 188.789L26.6562 219H21.7109V214.969L42.5938 184.875H47.375V188.789ZM44.9609 184.875V190.383H21.7344V184.875H44.9609ZM62.9375 219.469C60.9688 219.469 59.2031 219.156 57.6406 218.531C56.0781 217.891 54.75 217.008 53.6562 215.883C52.5781 214.758 51.75 213.453 51.1719 211.969C50.5938 210.469 50.3047 208.875 50.3047 207.188V206.25C50.3047 204.328 50.5781 202.57 51.125 200.977C51.6719 199.383 52.4531 198 53.4688 196.828C54.5 195.656 55.75 194.758 57.2188 194.133C58.6875 193.492 60.3438 193.172 62.1875 193.172C63.9844 193.172 65.5781 193.469 66.9688 194.062C68.3594 194.656 69.5234 195.5 70.4609 196.594C71.4141 197.688 72.1328 199 72.6172 200.531C73.1016 202.047 73.3438 203.734 73.3438 205.594V208.406H53.1875V203.906H66.7109V203.391C66.7109 202.453 66.5391 201.617 66.1953 200.883C65.8672 200.133 65.3672 199.539 64.6953 199.102C64.0234 198.664 63.1641 198.445 62.1172 198.445C61.2266 198.445 60.4609 198.641 59.8203 199.031C59.1797 199.422 58.6562 199.969 58.25 200.672C57.8594 201.375 57.5625 202.203 57.3594 203.156C57.1719 204.094 57.0781 205.125 57.0781 206.25V207.188C57.0781 208.203 57.2188 209.141 57.5 210C57.7969 210.859 58.2109 211.602 58.7422 212.227C59.2891 212.852 59.9453 213.336 60.7109 213.68C61.4922 214.023 62.375 214.195 63.3594 214.195C64.5781 214.195 65.7109 213.961 66.7578 213.492C67.8203 213.008 68.7344 212.281 69.5 211.312L72.7812 214.875C72.25 215.641 71.5234 216.375 70.6016 217.078C69.6953 217.781 68.6016 218.359 67.3203 218.812C66.0391 219.25 64.5781 219.469 62.9375 219.469ZM83.9375 199.172V219H77.1875V193.641H83.5391L83.9375 199.172ZM91.5781 193.477L91.4609 199.734C91.1328 199.688 90.7344 199.648 90.2656 199.617C89.8125 199.57 89.3984 199.547 89.0234 199.547C88.0703 199.547 87.2422 199.672 86.5391 199.922C85.8516 200.156 85.2734 200.508 84.8047 200.977C84.3516 201.445 84.0078 202.016 83.7734 202.688C83.5547 203.359 83.4297 204.125 83.3984 204.984L82.0391 204.562C82.0391 202.922 82.2031 201.414 82.5312 200.039C82.8594 198.648 83.3359 197.438 83.9609 196.406C84.6016 195.375 85.3828 194.578 86.3047 194.016C87.2266 193.453 88.2812 193.172 89.4688 193.172C89.8438 193.172 90.2266 193.203 90.6172 193.266C91.0078 193.312 91.3281 193.383 91.5781 193.477ZM117.453 198.938V204.844C117.453 207.406 117.18 209.617 116.633 211.477C116.086 213.32 115.297 214.836 114.266 216.023C113.25 217.195 112.039 218.062 110.633 218.625C109.227 219.188 107.664 219.469 105.945 219.469C104.57 219.469 103.289 219.297 102.102 218.953C100.914 218.594 99.8438 218.039 98.8906 217.289C97.9531 216.539 97.1406 215.594 96.4531 214.453C95.7812 213.297 95.2656 211.922 94.9062 210.328C94.5469 208.734 94.3672 206.906 94.3672 204.844V198.938C94.3672 196.375 94.6406 194.18 95.1875 192.352C95.75 190.508 96.5391 189 97.5547 187.828C98.5859 186.656 99.8047 185.797 101.211 185.25C102.617 184.688 104.18 184.406 105.898 184.406C107.273 184.406 108.547 184.586 109.719 184.945C110.906 185.289 111.977 185.828 112.93 186.562C113.883 187.297 114.695 188.242 115.367 189.398C116.039 190.539 116.555 191.906 116.914 193.5C117.273 195.078 117.453 196.891 117.453 198.938ZM110.68 205.734V198.023C110.68 196.789 110.609 195.711 110.469 194.789C110.344 193.867 110.148 193.086 109.883 192.445C109.617 191.789 109.289 191.258 108.898 190.852C108.508 190.445 108.062 190.148 107.562 189.961C107.062 189.773 106.508 189.68 105.898 189.68C105.133 189.68 104.453 189.828 103.859 190.125C103.281 190.422 102.789 190.898 102.383 191.555C101.977 192.195 101.664 193.055 101.445 194.133C101.242 195.195 101.141 196.492 101.141 198.023V205.734C101.141 206.969 101.203 208.055 101.328 208.992C101.469 209.93 101.672 210.734 101.938 211.406C102.219 212.062 102.547 212.602 102.922 213.023C103.312 213.43 103.758 213.727 104.258 213.914C104.773 214.102 105.336 214.195 105.945 214.195C106.695 214.195 107.359 214.047 107.938 213.75C108.531 213.438 109.031 212.953 109.438 212.297C109.859 211.625 110.172 210.75 110.375 209.672C110.578 208.594 110.68 207.281 110.68 205.734ZM134.281 183H141.031V213.188L140.352 219H134.281V183ZM157.086 206.062V206.555C157.086 208.445 156.883 210.18 156.477 211.758C156.086 213.336 155.477 214.703 154.648 215.859C153.82 217 152.789 217.891 151.555 218.531C150.336 219.156 148.898 219.469 147.242 219.469C145.695 219.469 144.352 219.156 143.211 218.531C142.086 217.906 141.141 217.023 140.375 215.883C139.609 214.742 138.992 213.406 138.523 211.875C138.055 210.344 137.703 208.672 137.469 206.859V205.781C137.703 203.969 138.055 202.297 138.523 200.766C138.992 199.234 139.609 197.898 140.375 196.758C141.141 195.617 142.086 194.734 143.211 194.109C144.336 193.484 145.664 193.172 147.195 193.172C148.867 193.172 150.32 193.492 151.555 194.133C152.805 194.758 153.836 195.648 154.648 196.805C155.477 197.945 156.086 199.305 156.477 200.883C156.883 202.445 157.086 204.172 157.086 206.062ZM150.336 206.555V206.062C150.336 205.031 150.258 204.062 150.102 203.156C149.961 202.234 149.711 201.43 149.352 200.742C148.992 200.039 148.5 199.484 147.875 199.078C147.266 198.672 146.477 198.469 145.508 198.469C144.586 198.469 143.805 198.625 143.164 198.938C142.523 199.25 141.992 199.688 141.57 200.25C141.164 200.812 140.859 201.484 140.656 202.266C140.453 203.031 140.328 203.875 140.281 204.797V207.867C140.328 209.102 140.531 210.195 140.891 211.148C141.266 212.086 141.828 212.828 142.578 213.375C143.344 213.906 144.336 214.172 145.555 214.172C146.508 214.172 147.297 213.984 147.922 213.609C148.547 213.234 149.031 212.703 149.375 212.016C149.734 211.328 149.984 210.523 150.125 209.602C150.266 208.664 150.336 207.648 150.336 206.555ZM168.523 216.141L175.25 193.641H182.492L172.297 222.82C172.078 223.461 171.781 224.148 171.406 224.883C171.047 225.617 170.555 226.312 169.93 226.969C169.32 227.641 168.547 228.188 167.609 228.609C166.688 229.031 165.555 229.242 164.211 229.242C163.57 229.242 163.047 229.203 162.641 229.125C162.234 229.047 161.75 228.938 161.188 228.797V223.852C161.359 223.852 161.539 223.852 161.727 223.852C161.914 223.867 162.094 223.875 162.266 223.875C163.156 223.875 163.883 223.773 164.445 223.57C165.008 223.367 165.461 223.055 165.805 222.633C166.148 222.227 166.422 221.695 166.625 221.039L168.523 216.141ZM165.711 193.641L171.219 212.016L172.18 219.164L167.586 219.656L158.469 193.641H165.711ZM222.242 213.516V219H198.055V213.516H222.242ZM221.891 188.789L201.172 219H196.227V214.969L217.109 184.875H221.891V188.789ZM219.477 184.875V190.383H196.25V184.875H219.477ZM237.453 219.469C235.484 219.469 233.719 219.156 232.156 218.531C230.594 217.891 229.266 217.008 228.172 215.883C227.094 214.758 226.266 213.453 225.688 211.969C225.109 210.469 224.82 208.875 224.82 207.188V206.25C224.82 204.328 225.094 202.57 225.641 200.977C226.188 199.383 226.969 198 227.984 196.828C229.016 195.656 230.266 194.758 231.734 194.133C233.203 193.492 234.859 193.172 236.703 193.172C238.5 193.172 240.094 193.469 241.484 194.062C242.875 194.656 244.039 195.5 244.977 196.594C245.93 197.688 246.648 199 247.133 200.531C247.617 202.047 247.859 203.734 247.859 205.594V208.406H227.703V203.906H241.227V203.391C241.227 202.453 241.055 201.617 240.711 200.883C240.383 200.133 239.883 199.539 239.211 199.102C238.539 198.664 237.68 198.445 236.633 198.445C235.742 198.445 234.977 198.641 234.336 199.031C233.695 199.422 233.172 199.969 232.766 200.672C232.375 201.375 232.078 202.203 231.875 203.156C231.688 204.094 231.594 205.125 231.594 206.25V207.188C231.594 208.203 231.734 209.141 232.016 210C232.312 210.859 232.727 211.602 233.258 212.227C233.805 212.852 234.461 213.336 235.227 213.68C236.008 214.023 236.891 214.195 237.875 214.195C239.094 214.195 240.227 213.961 241.273 213.492C242.336 213.008 243.25 212.281 244.016 211.312L247.297 214.875C246.766 215.641 246.039 216.375 245.117 217.078C244.211 217.781 243.117 218.359 241.836 218.812C240.555 219.25 239.094 219.469 237.453 219.469ZM258.453 199.172V219H251.703V193.641H258.055L258.453 199.172ZM266.094 193.477L265.977 199.734C265.648 199.688 265.25 199.648 264.781 199.617C264.328 199.57 263.914 199.547 263.539 199.547C262.586 199.547 261.758 199.672 261.055 199.922C260.367 200.156 259.789 200.508 259.32 200.977C258.867 201.445 258.523 202.016 258.289 202.688C258.07 203.359 257.945 204.125 257.914 204.984L256.555 204.562C256.555 202.922 256.719 201.414 257.047 200.039C257.375 198.648 257.852 197.438 258.477 196.406C259.117 195.375 259.898 194.578 260.82 194.016C261.742 193.453 262.797 193.172 263.984 193.172C264.359 193.172 264.742 193.203 265.133 193.266C265.523 193.312 265.844 193.383 266.094 193.477ZM291.969 198.938V204.844C291.969 207.406 291.695 209.617 291.148 211.477C290.602 213.32 289.812 214.836 288.781 216.023C287.766 217.195 286.555 218.062 285.148 218.625C283.742 219.188 282.18 219.469 280.461 219.469C279.086 219.469 277.805 219.297 276.617 218.953C275.43 218.594 274.359 218.039 273.406 217.289C272.469 216.539 271.656 215.594 270.969 214.453C270.297 213.297 269.781 211.922 269.422 210.328C269.062 208.734 268.883 206.906 268.883 204.844V198.938C268.883 196.375 269.156 194.18 269.703 192.352C270.266 190.508 271.055 189 272.07 187.828C273.102 186.656 274.32 185.797 275.727 185.25C277.133 184.688 278.695 184.406 280.414 184.406C281.789 184.406 283.062 184.586 284.234 184.945C285.422 185.289 286.492 185.828 287.445 186.562C288.398 187.297 289.211 188.242 289.883 189.398C290.555 190.539 291.07 191.906 291.43 193.5C291.789 195.078 291.969 196.891 291.969 198.938ZM285.195 205.734V198.023C285.195 196.789 285.125 195.711 284.984 194.789C284.859 193.867 284.664 193.086 284.398 192.445C284.133 191.789 283.805 191.258 283.414 190.852C283.023 190.445 282.578 190.148 282.078 189.961C281.578 189.773 281.023 189.68 280.414 189.68C279.648 189.68 278.969 189.828 278.375 190.125C277.797 190.422 277.305 190.898 276.898 191.555C276.492 192.195 276.18 193.055 275.961 194.133C275.758 195.195 275.656 196.492 275.656 198.023V205.734C275.656 206.969 275.719 208.055 275.844 208.992C275.984 209.93 276.188 210.734 276.453 211.406C276.734 212.062 277.062 212.602 277.438 213.023C277.828 213.43 278.273 213.727 278.773 213.914C279.289 214.102 279.852 214.195 280.461 214.195C281.211 214.195 281.875 214.047 282.453 213.75C283.047 213.438 283.547 212.953 283.953 212.297C284.375 211.625 284.688 210.75 284.891 209.672C285.094 208.594 285.195 207.281 285.195 205.734Z" fill="#7A7A7A"/>
</g>
<defs>
<filter id="filter0_b_53_2" x="-21" y="146" width="362" height="108" filterUnits="userSpaceOnUse" color-interpolation-filters="sRGB">
<feFlood flood-opacity="0" result="BackgroundImageFix"/>
<feGaussianBlur in="BackgroundImage" stdDeviation="10.5"/>
<feComposite in2="SourceAlpha" operator="in" result="effect1_backgroundBlur_53_2"/>
<feBlend mode="normal" in="SourceGraphic" in2="effect1_backgroundBlur_53_2" result="shape"/>
</filter>
<filter id="filter1_b_53_2" x="17.7109" y="179" width="278.258" height="54.2422" filterUnits="userSpaceOnUse" color-interpolation-filters="sRGB">
<feFlood flood-opacity="0" result="BackgroundImageFix"/>
<feGaussianBlur in="BackgroundImage" stdDeviation="2"/>
<feComposite in2="SourceAlpha" operator="in" result="effect1_backgroundBlur_53_2"/>
<feBlend mode="normal" in="SourceGraphic" in2="effect1_backgroundBlur_53_2" result="shape"/>
</filter>
<linearGradient id="paint0_linear_53_2" x1="165" y1="0" x2="165" y2="200" gradientUnits="userSpaceOnUse">
<stop stop-color="#FF2F01"/>
<stop offset="1" stop-color="#C8C800"/>
</linearGradient>
<linearGradient id="paint1_linear_53_2" x1="165" y1="263.333" x2="165" y2="400" gradientUnits="userSpaceOnUse">
<stop stop-color="#25ACE0"/>
<stop offset="1" stop-color="#C8C800"/>
</linearGradient>
</defs>
</svg>
